<svg width="1600" height="1348" viewBox="0 0 1600 1348" fill="none" xmlns="http://www.w3.org/2000/svg">
<g clip-path="url(#clip0)">
<path d="M1600 0H0V1347.9H1600V0Z" fill="url(#paint0_linear)"/>
<path d="M1164.3 575.4L979.7 682.7L964.8 674.1L1149.4 566.8L1164.3 575.4Z" fill="#593CF5"/>
<path d="M1514 1009.3L1432.5 1056.7C1402.5 1074.1 1353.7 1074.1 1323.6 1056.7L1281.5 1032.4L1417.3 953.5L1514 1009.3Z" fill="#694FF6"/>
<path d="M1259.7 848.4L1271.2 841.7L1259.2 834.8L1259 834.6L1259.7 848.4Z" fill="url(#paint1_linear)"/>
<path d="M1416.1 1007.4C1416.5 1007.1 1416.5 1006.7 1416.1 1006.5C1415.7 1006.2 1415 1006.3 1414.5 1006.5L1386.6 1022.7L1360.8 1007.8L1388.7 991.6C1389.1 991.3 1389.1 990.9 1388.7 990.7C1388.3 990.4 1387.5 990.4 1387.1 990.7L1359.2 1006.9L1342 997C1341.6 996.7 1340.9 996.8 1340.4 997C1340 997.3 1339.9 997.7 1340.4 997.9L1357.6 1007.8L1329.3 1024.2C1328.9 1024.5 1328.9 1024.9 1329.3 1025.1C1329.7 1025.4 1330.4 1025.4 1330.9 1025.1L1359.2 1008.7L1385 1023.6L1356.7 1040C1356.3 1040.3 1356.3 1040.7 1356.7 1040.9C1357.1 1041.2 1357.8 1041.2 1358.3 1040.9L1386.6 1024.5L1412.4 1039.4L1414 1038.5L1388.2 1023.6L1416.1 1007.4Z" fill="#A292F9"/>
<path d="M1443.5 1022.3C1443.1 1022 1442.3 1022 1441.9 1022.3L1414 1038.5L1412.4 1039.4L1384.1 1055.8C1383.7 1056.1 1383.7 1056.5 1384.1 1056.7C1384.5 1057 1385.2 1057 1385.7 1056.7L1414 1040.3L1431.2 1050.2C1431.6 1050.5 1432.4 1050.5 1432.8 1050.2C1433.2 1049.9 1433.2 1049.5 1432.8 1049.3L1415.6 1039.4L1443.5 1023.2C1443.9 1023 1443.9 1022.6 1443.5 1022.3Z" fill="#A292F9"/>
<path d="M1056.4 771.3H1052.1V795.1C1052.1 795.4 1052.3 795.7 1052.7 796C1053.6 796.5 1054.9 796.5 1055.8 796C1056.2 795.8 1056.4 795.4 1056.4 795.1V771.3Z" fill="#7871FF"/>
<path d="M1072 765.7C1072 775.5 1064.1 783.4 1054.3 783.4C1044.5 783.4 1036.6 775.5 1036.6 765.7C1036.6 755.9 1044.5 748 1054.3 748C1064 748 1072 755.9 1072 765.7Z" fill="url(#paint2_linear)"/>
<path d="M1579.2 267.8L1517.2 303.8C1510.8 307.5 1500.3 307.5 1493.8 303.8L1454.1 280.9C1450.8 279 1449.2 276.6 1449.2 274.1L1448.6 482.6C1448.6 485.1 1450.2 487.5 1453.5 489.4L1493.2 512.3C1499.7 516 1510.1 516 1516.6 512.3L1578.6 476.3C1581.8 474.4 1583.4 472 1583.4 469.6L1584 261.1C1584 263.6 1582.4 266 1579.2 267.8Z" fill="#664BF6"/>
<path d="M1579.1 254.3C1585.6 258 1585.6 264.1 1579.2 267.8L1517.2 303.8C1510.8 307.5 1500.3 307.5 1493.8 303.8L1454.1 280.9C1447.6 277.2 1447.6 271.1 1454 267.4L1516 231.4C1522.4 227.7 1532.9 227.7 1539.4 231.4L1579.1 254.3Z" fill="#4B2BF4"/>
<path d="M1572.9 247.1L1536.8 226.3C1531.3 223.1 1522.3 223.1 1516.8 226.3L1459.6 259.5C1456.9 261.1 1455.5 263.2 1455.5 265.2V271.7C1455.5 269.6 1456.9 267.5 1459.6 266L1516.8 232.8C1522.3 229.6 1531.2 229.6 1536.8 232.8L1572.9 253.6C1575.7 255.2 1577.1 257.3 1577.1 259.4V252.9C1577.1 250.8 1575.7 248.7 1572.9 247.1Z" fill="#664BF6"/>
<path d="M1574.6 246.1C1581.1 249.8 1581.1 255.9 1574.7 259.6L1517.5 292.8C1511.1 296.5 1500.6 296.5 1494.1 292.8L1458 272C1451.5 268.3 1451.5 262.2 1457.9 258.5L1515.1 225.3C1521.5 221.6 1532 221.6 1538.5 225.3L1574.6 246.1ZM1515.9 291.8L1573.1 258.6C1578.6 255.4 1578.6 250.2 1573 247L1536.9 226.2C1531.4 223 1522.4 223 1516.9 226.2L1459.7 259.4C1454.2 262.6 1454.2 267.8 1459.8 271L1495.9 291.8C1501.4 295 1510.4 295 1515.9 291.8Z" fill="#B0A2FA"/>
<path d="M1574.7 259.6L1517.5 292.8C1511.1 296.5 1500.6 296.5 1494.1 292.8L1458 272C1454.7 270.1 1453.1 267.7 1453.1 265.2V271.7C1453.1 274.2 1454.7 276.6 1458 278.5L1494.1 299.3C1500.6 303 1511 303 1517.5 299.3L1574.7 266.1C1577.9 264.2 1579.5 261.8 1579.5 259.4V252.9C1579.5 255.3 1577.9 257.8 1574.7 259.6Z" fill="#664BF6"/>
<path d="M1551.6 239L1519.2 257.8C1512.8 261.5 1502.3 261.5 1495.8 257.8L1478.1 247.6C1474.8 245.7 1473.2 243.2 1473.2 240.8L1473.1 266.9C1473.1 269.4 1474.7 271.8 1478 273.7L1495.7 283.9C1502.2 287.6 1512.6 287.6 1519.1 283.9L1551.5 265.1C1554.7 263.2 1556.3 260.8 1556.3 258.4L1556.4 232.3C1556.4 234.7 1554.8 237.1 1551.6 239Z" fill="#664BF6"/>
<path d="M1551.5 225.4C1558 229.1 1558 235.2 1551.6 238.9L1519.2 257.7C1512.8 261.4 1502.3 261.4 1495.8 257.7L1478.1 247.5C1471.6 243.8 1471.6 237.7 1478 234L1510.4 215.2C1516.8 211.5 1527.3 211.5 1533.8 215.2L1551.5 225.4Z" fill="#AA9BFA"/>
<path d="M1453.3 286.9L1493.3 310C1499.8 313.8 1510.4 313.8 1516.9 310L1579.5 273.6C1582 272.1 1583.5 270.3 1584.1 268.4V266.2C1583.5 268.1 1582 269.9 1579.5 271.4L1516.9 307.8C1510.4 311.6 1499.9 311.6 1493.3 307.8L1453.3 284.7C1451.4 283.6 1450.1 282.4 1449.3 281V283.2C1450.1 284.5 1451.4 285.8 1453.3 286.9Z" fill="#B0A2FA"/>
<path d="M1453.3 303L1493.3 326.1C1499.8 329.9 1510.4 329.9 1516.9 326.1L1579.5 289.7C1581.9 288.3 1583.4 286.6 1584 284.7V282.5C1583.4 284.3 1581.9 286.1 1579.5 287.5L1516.9 323.9C1510.4 327.7 1499.9 327.7 1493.3 323.9L1453.3 300.8C1451.4 299.7 1450.1 298.4 1449.3 297V299.2C1450 300.6 1451.4 301.9 1453.3 303Z" fill="#B0A2FA"/>
<path d="M1579.4 303.7L1516.8 340.1C1510.3 343.9 1499.8 343.9 1493.2 340.1L1453.2 317C1451.3 315.9 1449.9 314.6 1449.1 313.2V315.4C1449.9 316.8 1451.2 318.1 1453.2 319.2L1493.2 342.3C1499.7 346.1 1510.3 346.1 1516.8 342.3L1579.4 305.9C1581.8 304.5 1583.3 302.8 1583.9 301.1V298.9C1583.3 300.6 1581.8 302.3 1579.4 303.7Z" fill="#B0A2FA"/>
<path d="M1579.4 319.8L1516.8 356.2C1510.3 360 1499.8 360 1493.2 356.2L1453.2 333.1C1451.2 332 1449.9 330.6 1449.1 329.2V331.4C1449.9 332.8 1451.3 334.2 1453.2 335.3L1493.2 358.4C1499.7 362.2 1510.3 362.2 1516.8 358.4L1579.4 322C1581.7 320.6 1583.2 319 1583.8 317.3V315.1C1583.2 316.8 1581.7 318.4 1579.4 319.8Z" fill="#B0A2FA"/>
<path d="M1579.4 335.9L1516.8 372.3C1510.3 376.1 1499.8 376.1 1493.2 372.3L1453.2 349.2C1451.2 348 1449.8 346.7 1449 345.2V347.4C1449.8 348.9 1451.2 350.2 1453.2 351.4L1493.2 374.5C1499.7 378.3 1510.3 378.3 1516.8 374.5L1579.4 338.1C1581.7 336.8 1583.1 335.2 1583.8 333.5V331.3C1583.2 333 1581.7 334.6 1579.4 335.9Z" fill="#B0A2FA"/>
<path d="M1579.4 352L1516.8 388.4C1510.3 392.2 1499.8 392.2 1493.2 388.4L1453.2 365.3C1451.2 364.1 1449.8 362.7 1449 361.2V363.4C1449.8 364.9 1451.2 366.3 1453.2 367.5L1493.2 390.6C1499.7 394.4 1510.3 394.4 1516.8 390.6L1579.4 354.2C1581.6 352.9 1583.1 351.3 1583.8 349.7V347.5C1583.1 349.2 1581.6 350.7 1579.4 352Z" fill="#B0A2FA"/>
<path d="M1579.4 368.2L1516.8 404.6C1510.3 408.4 1499.8 408.4 1493.2 404.6L1453.2 381.5C1451.1 380.3 1449.7 378.9 1448.9 377.3V379.5C1449.7 381 1451.1 382.5 1453.2 383.7L1493.2 406.8C1499.7 410.6 1510.3 410.6 1516.8 406.8L1579.4 370.4C1581.6 369.1 1583 367.6 1583.7 366V363.8C1583 365.4 1581.6 366.9 1579.4 368.2Z" fill="#B0A2FA"/>
<path d="M1579.4 384.3L1516.8 420.7C1510.3 424.5 1499.8 424.5 1493.2 420.7L1453.2 397.6C1451.1 396.4 1449.6 394.9 1448.9 393.3V395.5C1449.6 397.1 1451.1 398.5 1453.2 399.8L1493.2 422.9C1499.7 426.7 1510.3 426.7 1516.8 422.9L1579.4 386.5C1581.5 385.3 1582.9 383.8 1583.7 382.2V380C1583 381.6 1581.5 383.1 1579.4 384.3Z" fill="#B0A2FA"/>
<path d="M1579.4 400.4L1516.8 436.8C1510.3 440.6 1499.8 440.6 1493.2 436.8L1453.2 413.7C1451 412.4 1449.6 410.9 1448.9 409.3V411.5C1449.6 413.1 1451.1 414.6 1453.2 415.9L1493.2 439C1499.7 442.8 1510.3 442.8 1516.8 439L1579.4 402.6C1581.5 401.4 1582.9 399.9 1583.6 398.4V396.2C1582.9 397.8 1581.5 399.2 1579.4 400.4Z" fill="#B0A2FA"/>
<path d="M1579.4 416.5L1516.8 452.9C1510.3 456.7 1499.8 456.7 1493.2 452.9L1453.2 429.8C1451 428.5 1449.5 427 1448.8 425.3V427.5C1449.5 429.1 1451 430.7 1453.2 432L1493.2 455.1C1499.7 458.9 1510.3 458.9 1516.8 455.1L1579.4 418.7C1581.4 417.5 1582.8 416.1 1583.6 414.6V412.4C1582.8 413.9 1581.5 415.4 1579.4 416.5Z" fill="#B0A2FA"/>
<path d="M1579.4 432.7L1516.8 469.1C1510.3 472.9 1499.8 472.9 1493.2 469.1L1453.2 446C1450.9 444.7 1449.5 443.1 1448.8 441.4V443.6C1449.5 445.3 1451 446.9 1453.2 448.2L1493.2 471.3C1499.7 475.1 1510.3 475.1 1516.8 471.3L1579.4 434.9C1581.4 433.7 1582.8 432.4 1583.5 430.9V428.7C1582.8 430.1 1581.4 431.5 1579.4 432.7Z" fill="#B0A2FA"/>
<path d="M1579.4 448.8L1516.8 485.2C1510.3 489 1499.8 489 1493.2 485.2L1453.2 462.1C1450.9 460.8 1449.4 459.1 1448.7 457.4V459.6C1449.4 461.3 1450.9 463 1453.2 464.3L1493.2 487.4C1499.7 491.2 1510.3 491.2 1516.8 487.4L1579.4 451C1581.4 449.9 1582.7 448.5 1583.5 447.1V444.9C1582.7 446.3 1581.4 447.7 1579.4 448.8Z" fill="#B0A2FA"/>
<path d="M1579.4 464.9L1516.8 501.3C1510.3 505.1 1499.8 505.1 1493.2 501.3L1453.2 478.2C1450.8 476.8 1449.3 475.1 1448.7 473.4V475.6C1449.4 477.4 1450.9 479 1453.2 480.4L1493.2 503.5C1499.7 507.3 1510.3 507.3 1516.8 503.5L1579.4 467.1C1581.3 466 1582.7 464.7 1583.4 463.3V461.1C1582.7 462.5 1581.3 463.8 1579.4 464.9Z" fill="#B0A2FA"/>
<path d="M1524.3 229.8L1524.2 235.2L1512.7 241.9V236.5L1524.3 229.8Z" fill="#694FF6"/>
<path d="M1512.7 236.5V241.9L1501.1 235.2V229.8L1512.7 236.5Z" fill="#694FF6"/>
<path d="M1524.3 229.8L1512.7 236.5L1501.1 229.8L1512.6 223.1L1524.3 229.8Z" fill="#AA9BFA"/>
<path d="M1517.1 224.6V229.9L1512.7 232.5V227.1L1517.1 224.6Z" fill="#694FF6"/>
<path d="M1512.7 227.1V232.5L1508.2 229.9L1508.3 224.6L1512.7 227.1Z" fill="#694FF6"/>
<path d="M1517.1 224.6L1512.7 227.1L1508.3 224.6L1512.7 222L1517.1 224.6Z" fill="#AA9BFA"/>
<path d="M1391.4 208.9L1390.5 515.3L1359.4 533.4L1360.2 227L1391.4 208.9Z" fill="#765EF7"/>
<path d="M1348.7 243.1L1348.8 249.3L1343.4 252.4V246.2L1348.7 243.1Z" fill="#5500B0"/>
<path d="M1359.1 237.2V243.4L1353.7 246.4V240.3L1359.1 237.2Z" fill="#5500B0"/>
<path d="M1374.2 228.5V234.6L1368.8 237.7V231.6L1374.2 228.5Z" fill="#333333"/>
<path d="M1384.5 222.5V228.7L1379.2 231.8L1379.1 225.6L1384.5 222.5Z" fill="#333333"/>
<path d="M1348.8 255V261.2L1343.4 264.2V258.1L1348.8 255Z" fill="#5500B0"/>
<path d="M1359.1 249V255.2L1353.8 258.3V252.1L1359.1 249Z" fill="#5500B0"/>
<path d="M1374.2 240.3V246.5L1368.9 249.6L1368.8 243.4L1374.2 240.3Z" fill="#5500B0"/>
<path d="M1384.5 234.4V240.5L1379.2 243.6V237.5L1384.5 234.4Z" fill="#333333"/>
<path d="M1348.8 266.8V273L1343.5 276.1V269.9L1348.8 266.8Z" fill="#5500B0"/>
<path d="M1359.1 260.9L1359.2 267L1353.8 270.1V264L1359.1 260.9Z" fill="#5500B0"/>
<path d="M1374.2 252.2L1374.3 258.3L1368.9 261.4V255.3L1374.2 252.2Z" fill="#5500B0"/>
<path d="M1384.6 246.2V252.4L1379.2 255.5V249.3L1384.6 246.2Z" fill="#5500B0"/>
<path d="M1348.9 278.7V284.9L1343.5 287.9V281.8L1348.9 278.7Z" fill="#5500B0"/>
<path d="M1359.2 272.7V278.9L1353.8 282V275.8L1359.2 272.7Z" fill="#5500B0"/>
<path d="M1374.3 264V270.2L1368.9 273.3V267.1L1374.3 264Z" fill="#5500B0"/>
<path d="M1384.6 258.1V264.2L1379.3 267.3L1379.2 261.2L1384.6 258.1Z" fill="#5500B0"/>
<path d="M1348.9 290.5V296.7L1343.5 299.8V293.6L1348.9 290.5Z" fill="#5500B0"/>
<path d="M1359.2 284.6V290.7L1353.9 293.8V287.7L1359.2 284.6Z" fill="#5500B0"/>
<path d="M1374.3 275.9V282L1369 285.1L1368.9 279L1374.3 275.9Z" fill="#5500B0"/>
<path d="M1384.6 269.9L1384.7 276.1L1379.3 279.2V273L1384.6 269.9Z" fill="#5500B0"/>
<path d="M1348.9 302.4V308.6L1343.6 311.6V305.5L1348.9 302.4Z" fill="#5500B0"/>
<path d="M1359.2 296.4L1359.3 302.6L1353.9 305.7V299.5L1359.2 296.4Z" fill="#5500B0"/>
<path d="M1374.3 287.7L1374.4 293.9L1369 297V290.8L1374.3 287.7Z" fill="#5500B0"/>
<path d="M1384.7 281.8V287.9L1379.3 291V284.9L1384.7 281.8Z" fill="#5500B0"/>
<path d="M1349 314.2V320.4L1343.6 323.5V317.3L1349 314.2Z" fill="#5500B0"/>
<path d="M1359.3 308.3V314.4L1353.9 317.5V311.4L1359.3 308.3Z" fill="#5500B0"/>
<path d="M1374.4 299.6V305.7L1369 308.8V302.7L1374.4 299.6Z" fill="#5500B0"/>
<path d="M1384.7 293.6V299.8L1379.4 302.9L1379.3 296.7L1384.7 293.6Z" fill="#5500B0"/>
<path d="M1349 326.1V332.3L1343.6 335.4V329.2L1349 326.1Z" fill="#5500B0"/>
<path d="M1359.3 320.1V326.3L1354 329.4V323.2L1359.3 320.1Z" fill="#5500B0"/>
<path d="M1374.4 311.4V317.6L1369.1 320.7L1369 314.5L1374.4 311.4Z" fill="#5500B0"/>
<path d="M1384.7 305.5L1384.8 311.6L1379.4 314.7V308.6L1384.7 305.5Z" fill="#5500B0"/>
<path d="M1349 338V344.1L1343.7 347.2V341L1349 338Z" fill="#5500B0"/>
<path d="M1359.3 332L1359.4 338.1L1354 341.2V335.1L1359.3 332Z" fill="#5500B0"/>
<path d="M1374.4 323.3L1374.5 329.4L1369.1 332.5V326.4L1374.4 323.3Z" fill="#5500B0"/>
<path d="M1384.8 317.3V323.5L1379.4 326.6V320.4L1384.8 317.3Z" fill="#5500B0"/>
<path d="M1349.1 349.8V356L1343.7 359.1V352.9L1349.1 349.8Z" fill="#5500B0"/>
<path d="M1359.4 343.8V350L1354 353.1V346.9L1359.4 343.8Z" fill="#5500B0"/>
<path d="M1374.5 335.1V341.3L1369.1 344.4V338.2L1374.5 335.1Z" fill="#5500B0"/>
<path d="M1384.8 329.2V335.3L1379.5 338.4L1379.4 332.3L1384.8 329.2Z" fill="#5500B0"/>
<path d="M1349.1 361.6V367.8L1343.7 370.9V364.7L1349.1 361.6Z" fill="#5500B0"/>
<path d="M1359.4 355.7V361.8L1354.1 364.9V358.8L1359.4 355.7Z" fill="#5500B0"/>
<path d="M1374.5 347V353.1L1369.2 356.2L1369.1 350.1L1374.5 347Z" fill="#5500B0"/>
<path d="M1384.8 341L1384.9 347.2L1379.5 350.3V344.1L1384.8 341Z" fill="#5500B0"/>
<path d="M1349.1 373.5V379.7L1343.8 382.7V376.6L1349.1 373.5Z" fill="#5500B0"/>
<path d="M1359.4 367.5L1359.5 373.7L1354.1 376.8V370.6L1359.4 367.5Z" fill="#5500B0"/>
<path d="M1374.5 358.8L1374.6 365L1369.2 368.1V361.9L1374.5 358.8Z" fill="#5500B0"/>
<path d="M1384.9 352.9V359L1379.5 362.1V355.9L1384.9 352.9Z" fill="#5500B0"/>
<path d="M1349.2 385.3V391.5L1343.8 394.6V388.4L1349.2 385.3Z" fill="#5500B0"/>
<path d="M1359.5 379.4V385.5L1354.1 388.6V382.5L1359.5 379.4Z" fill="#5500B0"/>
<path d="M1374.6 370.7V376.8L1369.2 379.9V373.8L1374.6 370.7Z" fill="#5500B0"/>
<path d="M1384.9 364.7V370.9L1379.6 374L1379.5 367.8L1384.9 364.7Z" fill="#5500B0"/>
<path d="M1349.2 397.2V403.4L1343.8 406.4V400.3L1349.2 397.2Z" fill="#5500B0"/>
<path d="M1359.5 391.2V397.4L1354.2 400.5V394.3L1359.5 391.2Z" fill="#5500B0"/>
<path d="M1374.6 382.5V388.7L1369.3 391.8L1369.2 385.6L1374.6 382.5Z" fill="#5500B0"/>
<path d="M1384.9 376.5L1385 382.7L1379.6 385.8V379.6L1384.9 376.5Z" fill="#5500B0"/>
<path d="M1349.2 409V415.2L1343.9 418.3V412.1L1349.2 409Z" fill="#5500B0"/>
<path d="M1359.5 403.1L1359.6 409.2L1354.2 412.3V406.2L1359.5 403.1Z" fill="#5500B0"/>
<path d="M1374.6 394.4L1374.7 400.5L1369.3 403.6V397.5L1374.6 394.4Z" fill="#5500B0"/>
<path d="M1385 388.4V394.6L1379.6 397.7V391.5L1385 388.4Z" fill="#5500B0"/>
<path d="M1349.3 420.9V427.1L1343.9 430.1V424L1349.3 420.9Z" fill="#5500B0"/>
<path d="M1359.6 414.9V421.1L1354.2 424.2V418L1359.6 414.9Z" fill="#5500B0"/>
<path d="M1374.7 406.2V412.4L1369.3 415.5V409.3L1374.7 406.2Z" fill="#5500B0"/>
<path d="M1385 400.2V406.4L1379.7 409.5L1379.6 403.3L1385 400.2Z" fill="#5500B0"/>
<path d="M1349.3 432.7V438.9L1343.9 442V435.8L1349.3 432.7Z" fill="#5500B0"/>
<path d="M1359.6 426.8V432.9L1354.3 436V429.9L1359.6 426.8Z" fill="#5500B0"/>
<path d="M1374.7 418.1V424.2L1369.4 427.3L1369.3 421.2L1374.7 418.1Z" fill="#5500B0"/>
<path d="M1385 412.1L1385.1 418.3L1379.7 421.4V415.2L1385 412.1Z" fill="#5500B0"/>
<path d="M1349.3 444.6V450.7L1344 453.8V447.7L1349.3 444.6Z" fill="#5500B0"/>
<path d="M1359.6 438.6L1359.7 444.8L1354.3 447.9V441.7L1359.6 438.6Z" fill="#5500B0"/>
<path d="M1374.7 429.9L1374.8 436.1L1369.4 439.2V433L1374.7 429.9Z" fill="#5500B0"/>
<path d="M1385.1 424V430.1L1379.7 433.2V427.1L1385.1 424Z" fill="#5500B0"/>
<path d="M1336 277.2L1335.2 583.6L1248.1 533.3L1248.9 226.9L1336 277.2Z" fill="#4B2BF4"/>
<path d="M1391.4 245L1390.5 551.4L1335.2 583.6L1336 277.2L1391.4 245Z" fill="#765EF7"/>
<path d="M1391.4 208.9L1360.2 227L1391.4 245L1336 277.2L1248.9 226.9L1335.5 176.6L1391.4 208.9Z" fill="#333333"/>
<path d="M1349.7 277.8V283.9L1344.3 287V280.9L1349.7 277.8Z" fill="#333333"/>
<path d="M1360 271.8V278L1354.7 281.1L1354.6 274.9L1360 271.8Z" fill="#333333"/>
<path d="M1375.1 263.1V269.2L1369.7 272.3V266.2L1375.1 263.1Z" fill="#333333"/>
<path d="M1385.4 257.1V263.3L1380.1 266.4V260.2L1385.4 257.1Z" fill="#333333"/>
<path d="M1349.7 289.6V295.8L1344.4 298.9L1344.3 292.7L1349.7 289.6Z" fill="#333333"/>
<path d="M1360 283.7V289.8L1354.7 292.9V286.7L1360 283.7Z" fill="#333333"/>
<path d="M1375.1 274.9V281.1L1369.8 284.2V278L1375.1 274.9Z" fill="#333333"/>
<path d="M1385.5 269V275.1L1380.1 278.2V272.1L1385.5 269Z" fill="#333333"/>
<path d="M1349.7 301.5L1349.8 307.6L1344.4 310.7V304.5L1349.7 301.5Z" fill="#333333"/>
<path d="M1360.1 295.5V301.7L1354.7 304.8V298.6L1360.1 295.5Z" fill="#333333"/>
<path d="M1375.2 286.8V292.9L1369.8 296V289.9L1375.2 286.8Z" fill="#333333"/>
<path d="M1385.5 280.8V287L1380.1 290.1V283.9L1385.5 280.8Z" fill="#333333"/>
<path d="M1349.8 313.3V319.5L1344.4 322.6V316.4L1349.8 313.3Z" fill="#333333"/>
<path d="M1360.1 307.3V313.5L1354.8 316.6L1354.7 310.4L1360.1 307.3Z" fill="#333333"/>
<path d="M1375.2 298.6V304.8L1369.8 307.9V301.7L1375.2 298.6Z" fill="#333333"/>
<path d="M1385.5 292.7V298.8L1380.2 301.9V295.8L1385.5 292.7Z" fill="#333333"/>
<path d="M1349.8 325.2V331.3L1344.5 334.4V328.2L1349.8 325.2Z" fill="#333333"/>
<path d="M1360.1 319.2L1360.2 325.4L1354.8 328.4V322.3L1360.1 319.2Z" fill="#333333"/>
<path d="M1375.2 310.5V316.6L1369.9 319.7V313.6L1375.2 310.5Z" fill="#333333"/>
<path d="M1385.6 304.5V310.7L1380.2 313.8V307.6L1385.6 304.5Z" fill="#333333"/>
<path d="M1349.8 337L1349.9 343.2L1344.5 346.3V340.1L1349.8 337Z" fill="#333333"/>
<path d="M1360.2 331V337.2L1354.8 340.3V334.1L1360.2 331Z" fill="#333333"/>
<path d="M1375.3 322.3V328.5L1369.9 331.6V325.4L1375.3 322.3Z" fill="#333333"/>
<path d="M1385.6 316.4V322.5L1380.2 325.6V319.5L1385.6 316.4Z" fill="#333333"/>
<path d="M1349.9 348.9V355L1344.5 358.1V351.9L1349.9 348.9Z" fill="#333333"/>
<path d="M1360.2 342.9V349.1L1354.9 352.1L1354.8 346L1360.2 342.9Z" fill="#333333"/>
<path d="M1375.3 334.2V340.3L1369.9 343.4V337.3L1375.3 334.2Z" fill="#333333"/>
<path d="M1385.6 328.2V334.4L1380.3 337.5V331.3L1385.6 328.2Z" fill="#333333"/>
<path d="M1349.9 360.7V366.9L1344.6 370V363.8L1349.9 360.7Z" fill="#333333"/>
<path d="M1360.2 354.7L1360.3 360.9L1354.9 364V357.8L1360.2 354.7Z" fill="#333333"/>
<path d="M1375.3 346V352.2L1370 355.3V349.1L1375.3 346Z" fill="#333333"/>
<path d="M1385.7 340.1V346.2L1380.3 349.3V343.2L1385.7 340.1Z" fill="#333333"/>
<path d="M1349.9 372.6L1350 378.7L1344.6 381.8V375.7L1349.9 372.6Z" fill="#333333"/>
<path d="M1360.3 366.6V372.8L1354.9 375.8V369.7L1360.3 366.6Z" fill="#333333"/>
<path d="M1375.4 357.9V364L1370 367.1V361L1375.4 357.9Z" fill="#333333"/>
<path d="M1385.7 351.9V358.1L1380.3 361.2V355L1385.7 351.9Z" fill="#333333"/>
<path d="M1350 384.4V390.6L1344.6 393.7V387.5L1350 384.4Z" fill="#333333"/>
<path d="M1360.3 378.4V384.6L1355 387.7L1354.9 381.5L1360.3 378.4Z" fill="#333333"/>
<path d="M1375.4 369.7V375.9L1370 379V372.8L1375.4 369.7Z" fill="#333333"/>
<path d="M1385.7 363.8V369.9L1380.4 373V366.9L1385.7 363.8Z" fill="#333333"/>
<path d="M1350 396.3V402.4L1344.7 405.5V399.3L1350 396.3Z" fill="#333333"/>
<path d="M1360.3 390.3L1360.4 396.4L1355 399.5V393.4L1360.3 390.3Z" fill="#333333"/>
<path d="M1375.4 381.6V387.7L1370.1 390.8V384.7L1375.4 381.6Z" fill="#333333"/>
<path d="M1385.8 375.6V381.8L1380.4 384.9V378.7L1385.8 375.6Z" fill="#333333"/>
<path d="M1350 408.1L1350.1 414.3L1344.7 417.4V411.2L1350 408.1Z" fill="#333333"/>
<path d="M1360.4 402.1V408.3L1355 411.4V405.2L1360.4 402.1Z" fill="#333333"/>
<path d="M1375.5 393.4V399.6L1370.1 402.7V396.5L1375.5 393.4Z" fill="#333333"/>
<path d="M1385.8 387.5V393.6L1380.4 396.7V390.6L1385.8 387.5Z" fill="#333333"/>
<path d="M1350.1 420V426.1L1344.7 429.2V423L1350.1 420Z" fill="#333333"/>
<path d="M1360.4 414V420.1L1355.1 423.2L1355 417.1L1360.4 414Z" fill="#333333"/>
<path d="M1375.5 405.3V411.4L1370.1 414.5V408.4L1375.5 405.3Z" fill="#333333"/>
<path d="M1385.8 399.3V405.5L1380.5 408.6V402.4L1385.8 399.3Z" fill="#333333"/>
<path d="M1350.1 431.8V438L1344.8 441.1V434.9L1350.1 431.8Z" fill="#333333"/>
<path d="M1360.4 425.8L1360.5 432L1355.1 435.1V428.9L1360.4 425.8Z" fill="#333333"/>
<path d="M1375.5 417.1V423.3L1370.2 426.4V420.2L1375.5 417.1Z" fill="#333333"/>
<path d="M1385.9 411.2V417.3L1380.5 420.4V414.3L1385.9 411.2Z" fill="#333333"/>
<path d="M1350.1 443.7L1350.2 449.8L1344.8 452.9V446.7L1350.1 443.7Z" fill="#333333"/>
<path d="M1360.5 437.7V443.8L1355.1 446.9V440.8L1360.5 437.7Z" fill="#333333"/>
<path d="M1375.6 429V435.1L1370.2 438.2V432.1L1375.6 429Z" fill="#333333"/>
<path d="M1385.9 423V429.2L1380.5 432.3V426.1L1385.9 423Z" fill="#333333"/>
<path d="M1350.2 455.5V461.7L1344.8 464.8V458.6L1350.2 455.5Z" fill="#333333"/>
<path d="M1360.5 449.5V455.7L1355.2 458.8L1355.1 452.6L1360.5 449.5Z" fill="#333333"/>
<path d="M1375.6 440.8V447L1370.2 450.1V443.9L1375.6 440.8Z" fill="#333333"/>
<path d="M1385.9 434.9V441L1380.6 444.1V438L1385.9 434.9Z" fill="#333333"/>
<path d="M1350.2 467.3V473.5L1344.9 476.6V470.4L1350.2 467.3Z" fill="#333333"/>
<path d="M1360.5 461.4L1360.6 467.6L1355.2 470.6V464.5L1360.5 461.4Z" fill="#333333"/>
<path d="M1375.6 452.7V458.8L1370.3 461.9V455.8L1375.6 452.7Z" fill="#333333"/>
<path d="M1386 446.7V452.9L1380.6 456V449.8L1386 446.7Z" fill="#333333"/>
<path d="M1350.2 479.2L1350.3 485.4L1344.9 488.4V482.3L1350.2 479.2Z" fill="#333333"/>
<path d="M1360.6 473.2V479.4L1355.2 482.5V476.3L1360.6 473.2Z" fill="#333333"/>
<path d="M1375.7 464.5V470.7L1370.3 473.8V467.6L1375.7 464.5Z" fill="#333333"/>
<path d="M1386 458.6V464.7L1380.6 467.8V461.7L1386 458.6Z" fill="#333333"/>
<path d="M1350.3 491.1V497.2L1345 500.3V494.1L1350.3 491.1Z" fill="#333333"/>
<path d="M1360.6 485.1L1360.7 491.3L1355.3 494.3V488.2L1360.6 485.1Z" fill="#333333"/>
<path d="M1375.7 476.4L1375.8 482.5L1370.4 485.6V479.5L1375.7 476.4Z" fill="#333333"/>
<path d="M1386.1 470.4V476.6L1380.7 479.7V473.5L1386.1 470.4Z" fill="#333333"/>
<path d="M1350.4 502.9V509.1L1345 512.2V506L1350.4 502.9Z" fill="#333333"/>
<path d="M1360.7 496.9V503.1L1355.3 506.2V500L1360.7 496.9Z" fill="#333333"/>
<path d="M1375.8 488.2V494.4L1370.4 497.5V491.3L1375.8 488.2Z" fill="#333333"/>
<path d="M1386.1 482.3V488.4L1380.8 491.5L1380.7 485.4L1386.1 482.3Z" fill="#333333"/>
<path d="M1350.4 514.7V520.9L1345 524V517.8L1350.4 514.7Z" fill="#333333"/>
<path d="M1360.7 508.8V515L1355.4 518V511.9L1360.7 508.8Z" fill="#333333"/>
<path d="M1375.8 500.1V506.2L1370.5 509.3L1370.4 503.2L1375.8 500.1Z" fill="#333333"/>
<path d="M1386.1 494.1L1386.2 500.3L1380.8 503.4V497.2L1386.1 494.1Z" fill="#333333"/>
<path d="M1350.4 526.6V532.8L1345.1 535.8V529.7L1350.4 526.6Z" fill="#333333"/>
<path d="M1360.7 520.6L1360.8 526.8L1355.4 529.9V523.7L1360.7 520.6Z" fill="#333333"/>
<path d="M1375.8 511.9L1375.9 518.1L1370.5 521.2V515L1375.8 511.9Z" fill="#333333"/>
<path d="M1386.2 506V512.1L1380.8 515.2V509.1L1386.2 506Z" fill="#333333"/>
<path d="M1350.5 538.4V544.6L1345.1 547.7V541.5L1350.5 538.4Z" fill="#333333"/>
<path d="M1360.8 532.5V538.7L1355.4 541.7V535.6L1360.8 532.5Z" fill="#333333"/>
<path d="M1375.9 523.8V529.9L1370.5 533V526.9L1375.9 523.8Z" fill="#333333"/>
<path d="M1386.2 517.8V524L1380.9 527.1L1380.8 520.9L1386.2 517.8Z" fill="#333333"/>
<path d="M1350.5 550.3V556.5L1345.2 559.6L1345.1 553.4L1350.5 550.3Z" fill="#333333"/>
<path d="M1360.8 544.3V550.5L1355.5 553.6V547.4L1360.8 544.3Z" fill="#333333"/>
<path d="M1375.9 535.6V541.8L1370.6 544.9L1370.5 538.7L1375.9 535.6Z" fill="#333333"/>
<path d="M1386.2 529.7L1386.3 535.8L1380.9 538.9V532.8L1386.2 529.7Z" fill="#333333"/>
<path d="M1350.5 562.2V568.3L1345.2 571.4V565.2L1350.5 562.2Z" fill="#333333"/>
<path d="M1360.8 556.2L1360.9 562.3L1355.5 565.4V559.3L1360.8 556.2Z" fill="#333333"/>
<path d="M1375.9 547.5L1376 553.6L1370.6 556.7V550.6L1375.9 547.5Z" fill="#333333"/>
<path d="M1386.3 541.5V547.7L1380.9 550.8V544.6L1386.3 541.5Z" fill="#333333"/>
<path d="M1306.2 267.7V273.8L1311.6 276.9V270.8L1306.2 267.7Z" fill="#333333"/>
<path d="M1295.9 261.7V267.9L1301.2 271V264.8L1295.9 261.7Z" fill="#333333"/>
<path d="M1280.8 253V259.2L1286.1 262.2L1286.2 256.1L1280.8 253Z" fill="#333333"/>
<path d="M1270.5 247V253.2L1275.8 256.3V250.1L1270.5 247Z" fill="#333333"/>
<path d="M1306.2 279.5V285.7L1311.5 288.8V282.6L1306.2 279.5Z" fill="#333333"/>
<path d="M1295.9 273.6L1295.8 279.7L1301.2 282.8V276.6L1295.9 273.6Z" fill="#333333"/>
<path d="M1280.8 264.8L1280.7 271L1286.1 274.1V267.9L1280.8 264.8Z" fill="#333333"/>
<path d="M1270.4 258.9V265L1275.8 268.1V262L1270.4 258.9Z" fill="#333333"/>
<path d="M1306.2 291.4L1306.1 297.5L1311.5 300.6V294.5L1306.2 291.4Z" fill="#333333"/>
<path d="M1295.8 285.4V291.6L1301.2 294.7V288.5L1295.8 285.4Z" fill="#333333"/>
<path d="M1280.7 276.7V282.8L1286.1 285.9V279.8L1280.7 276.7Z" fill="#333333"/>
<path d="M1270.4 270.7V276.9L1275.8 280V273.8L1270.4 270.7Z" fill="#333333"/>
<path d="M1306.1 303.2V309.4L1311.5 312.5V306.3L1306.1 303.2Z" fill="#333333"/>
<path d="M1295.8 297.3V303.4L1301.1 306.5V300.3L1295.8 297.3Z" fill="#333333"/>
<path d="M1280.7 288.5V294.7L1286 297.8L1286.1 291.6L1280.7 288.5Z" fill="#333333"/>
<path d="M1270.4 282.6V288.7L1275.7 291.8V285.7L1270.4 282.6Z" fill="#333333"/>
<path d="M1306.1 315.1V321.2L1311.4 324.3V318.1L1306.1 315.1Z" fill="#333333"/>
<path d="M1295.8 309.1L1295.7 315.3L1301.1 318.4V312.2L1295.8 309.1Z" fill="#333333"/>
<path d="M1280.7 300.4L1280.6 306.5L1286 309.6V303.5L1280.7 300.4Z" fill="#333333"/>
<path d="M1270.3 294.4V300.6L1275.7 303.7V297.5L1270.3 294.4Z" fill="#333333"/>
<path d="M1306.1 326.9L1306 333.1L1311.4 336.2V330L1306.1 326.9Z" fill="#333333"/>
<path d="M1295.7 320.9V327.1L1301.1 330.2V324L1295.7 320.9Z" fill="#333333"/>
<path d="M1280.6 312.2V318.4L1286 321.5V315.3L1280.6 312.2Z" fill="#333333"/>
<path d="M1270.3 306.3V312.4L1275.7 315.5V309.4L1270.3 306.3Z" fill="#333333"/>
<path d="M1306 338.8V344.9L1311.4 348V341.8L1306 338.8Z" fill="#333333"/>
<path d="M1295.7 332.8V339L1301 342V335.9L1295.7 332.8Z" fill="#333333"/>
<path d="M1280.6 324.1V330.2L1285.9 333.3L1286 327.2L1280.6 324.1Z" fill="#333333"/>
<path d="M1270.3 318.1V324.3L1275.6 327.4V321.2L1270.3 318.1Z" fill="#333333"/>
<path d="M1306 350.6V356.8L1311.3 359.9V353.7L1306 350.6Z" fill="#333333"/>
<path d="M1295.7 344.6L1295.6 350.8L1301 353.9V347.7L1295.7 344.6Z" fill="#333333"/>
<path d="M1280.6 335.9L1280.5 342.1L1285.9 345.2V339L1280.6 335.9Z" fill="#333333"/>
<path d="M1270.2 330V336.1L1275.6 339.2V333.1L1270.2 330Z" fill="#333333"/>
<path d="M1306 362.5L1305.9 368.6L1311.3 371.7V365.6L1306 362.5Z" fill="#333333"/>
<path d="M1295.6 356.5V362.7L1301 365.7V359.6L1295.6 356.5Z" fill="#333333"/>
<path d="M1280.5 347.8V353.9L1285.9 357V350.9L1280.5 347.8Z" fill="#333333"/>
<path d="M1270.2 341.8V348L1275.6 351.1V344.9L1270.2 341.8Z" fill="#333333"/>
<path d="M1305.9 374.3V380.5L1311.3 383.6V377.4L1305.9 374.3Z" fill="#333333"/>
<path d="M1295.6 368.3V374.5L1300.9 377.6V371.4L1295.6 368.3Z" fill="#333333"/>
<path d="M1280.5 359.6V365.8L1285.8 368.9L1285.9 362.7L1280.5 359.6Z" fill="#333333"/>
<path d="M1270.2 353.7V359.8L1275.5 362.9V356.8L1270.2 353.7Z" fill="#333333"/>
<path d="M1305.9 386.2V392.3L1311.2 395.4V389.3L1305.9 386.2Z" fill="#333333"/>
<path d="M1295.6 380.2L1295.5 386.4L1300.9 389.4V383.3L1295.6 380.2Z" fill="#333333"/>
<path d="M1280.5 371.5L1280.4 377.6L1285.8 380.7V374.6L1280.5 371.5Z" fill="#333333"/>
<path d="M1270.1 365.5V371.7L1275.5 374.8V368.6L1270.1 365.5Z" fill="#333333"/>
<path d="M1305.9 398L1305.8 404.2L1311.2 407.3V401.1L1305.9 398Z" fill="#333333"/>
<path d="M1295.5 392V398.2L1300.9 401.3V395.1L1295.5 392Z" fill="#333333"/>
<path d="M1280.4 383.3V389.5L1285.8 392.6V386.4L1280.4 383.3Z" fill="#333333"/>
<path d="M1270.1 377.4V383.5L1275.5 386.6V380.5L1270.1 377.4Z" fill="#333333"/>
<path d="M1305.8 409.9V416L1311.2 419.1V413L1305.8 409.9Z" fill="#333333"/>
<path d="M1295.5 403.9V410L1300.8 413.1V407L1295.5 403.9Z" fill="#333333"/>
<path d="M1280.4 395.2V401.3L1285.7 404.4L1285.8 398.3L1280.4 395.2Z" fill="#333333"/>
<path d="M1270.1 389.2V395.4L1275.4 398.5V392.3L1270.1 389.2Z" fill="#333333"/>
<path d="M1305.8 421.7V427.9L1311.1 431V424.8L1305.8 421.7Z" fill="#333333"/>
<path d="M1295.5 415.7L1295.4 421.9L1300.8 425V418.8L1295.5 415.7Z" fill="#333333"/>
<path d="M1280.4 407L1280.3 413.2L1285.7 416.3V410.1L1280.4 407Z" fill="#333333"/>
<path d="M1270 401.1V407.2L1275.4 410.3V404.2L1270 401.1Z" fill="#333333"/>
<path d="M1305.8 433.6L1305.7 439.7L1311.1 442.8V436.6L1305.8 433.6Z" fill="#333333"/>
<path d="M1295.4 427.6V433.7L1300.8 436.8V430.7L1295.4 427.6Z" fill="#333333"/>
<path d="M1280.3 418.9V425L1285.7 428.1V422L1280.3 418.9Z" fill="#333333"/>
<path d="M1270 412.9V419.1L1275.4 422.2V416L1270 412.9Z" fill="#333333"/>
<path d="M1305.7 445.4V451.6L1311.1 454.7V448.5L1305.7 445.4Z" fill="#333333"/>
<path d="M1295.4 439.4V445.6L1300.7 448.7V442.5L1295.4 439.4Z" fill="#333333"/>
<path d="M1280.3 430.7V436.9L1285.6 440L1285.7 433.8L1280.3 430.7Z" fill="#333333"/>
<path d="M1270 424.8V430.9L1275.3 434V427.9L1270 424.8Z" fill="#333333"/>
<path d="M1305.7 457.3V463.4L1311 466.5V460.3L1305.7 457.3Z" fill="#333333"/>
<path d="M1295.4 451.3L1295.3 457.5L1300.7 460.5V454.4L1295.4 451.3Z" fill="#333333"/>
<path d="M1280.3 442.6L1280.2 448.7L1285.6 451.8V445.7L1280.3 442.6Z" fill="#333333"/>
<path d="M1269.9 436.6V442.8L1275.3 445.9V439.7L1269.9 436.6Z" fill="#333333"/>
<path d="M1305.7 469.1L1305.6 475.3L1311 478.4V472.2L1305.7 469.1Z" fill="#333333"/>
<path d="M1295.3 463.1V469.3L1300.7 472.4V466.2L1295.3 463.1Z" fill="#333333"/>
<path d="M1280.2 454.4V460.6L1285.6 463.7V457.5L1280.2 454.4Z" fill="#333333"/>
<path d="M1269.9 448.5V454.6L1275.3 457.7V451.6L1269.9 448.5Z" fill="#333333"/>
<path d="M1305.6 481V487.1L1310.9 490.2V484L1305.6 481Z" fill="#333333"/>
<path d="M1295.2 475V481.2L1300.6 484.3V478.1L1295.2 475Z" fill="#333333"/>
<path d="M1280.2 466.3L1280.1 472.4L1285.5 475.5V469.4L1280.2 466.3Z" fill="#333333"/>
<path d="M1269.8 460.3V466.5L1275.2 469.6V463.4L1269.8 460.3Z" fill="#333333"/>
<path d="M1305.5 492.8V499L1310.9 502.1V495.9L1305.5 492.8Z" fill="#333333"/>
<path d="M1295.2 486.8V493L1300.5 496.1L1300.6 489.9L1295.2 486.8Z" fill="#333333"/>
<path d="M1280.1 478.1V484.3L1285.5 487.4V481.2L1280.1 478.1Z" fill="#333333"/>
<path d="M1269.8 472.2V478.3L1275.1 481.4L1275.2 475.3L1269.8 472.2Z" fill="#333333"/>
<path d="M1305.5 504.7V510.8L1310.8 513.9L1310.9 507.7L1305.5 504.7Z" fill="#333333"/>
<path d="M1295.2 498.7V504.9L1300.5 507.9V501.8L1295.2 498.7Z" fill="#333333"/>
<path d="M1280.1 490V496.1L1285.4 499.2L1285.5 493.1L1280.1 490Z" fill="#333333"/>
<path d="M1269.8 484L1269.7 490.2L1275.1 493.3V487.1L1269.8 484Z" fill="#333333"/>
<path d="M1305.5 516.5V522.7L1310.8 525.8V519.6L1305.5 516.5Z" fill="#333333"/>
<path d="M1295.1 510.5V516.7L1300.5 519.8V513.6L1295.1 510.5Z" fill="#333333"/>
<path d="M1280.1 501.8L1280 508L1285.4 511.1V504.9L1280.1 501.8Z" fill="#333333"/>
<path d="M1269.7 495.9V502L1275.1 505.1V499L1269.7 495.9Z" fill="#333333"/>
<path d="M1305.4 528.4V534.5L1310.8 537.6V531.4L1305.4 528.4Z" fill="#333333"/>
<path d="M1295.1 522.4V528.6L1300.4 531.6L1300.5 525.5L1295.1 522.4Z" fill="#333333"/>
<path d="M1280 513.7V519.8L1285.4 522.9V516.8L1280 513.7Z" fill="#333333"/>
<path d="M1269.7 507.7V513.9L1275 517L1275.1 510.8L1269.7 507.7Z" fill="#333333"/>
<path d="M1305.4 540.2V546.4L1310.7 549.5L1310.8 543.3L1305.4 540.2Z" fill="#333333"/>
<path d="M1295.1 534.2V540.4L1300.4 543.5V537.3L1295.1 534.2Z" fill="#333333"/>
<path d="M1280 525.5V531.7L1285.3 534.8V528.6L1280 525.5Z" fill="#333333"/>
<path d="M1269.7 519.6L1269.6 525.7L1275 528.8V522.7L1269.7 519.6Z" fill="#333333"/>
<path d="M1305.4 552.1V558.2L1310.7 561.3V555.2L1305.4 552.1Z" fill="#333333"/>
<path d="M1295 546.1V552.3L1300.4 555.3V549.2L1295 546.1Z" fill="#333333"/>
<path d="M1280 537.4L1279.9 543.5L1285.3 546.6V540.5L1280 537.4Z" fill="#333333"/>
<path d="M1269.6 531.4V537.6L1275 540.7V534.5L1269.6 531.4Z" fill="#333333"/>
<path d="M1226.4 360.4L1225.5 705L1139.2 755.2L1140.1 410.6L1226.4 360.4Z" fill="#AD9FFA"/>
<path d="M1140.1 410.6L1139.2 755.2L1052.4 705L1053.3 360.4L1140.1 410.6Z" fill="#9886F9"/>
<path d="M1226.4 360.4L1140.1 410.6L1053.3 360.4L1139.5 310.3L1226.4 360.4Z" fill="#333333"/>
<path d="M1072.6 408.5L1072.5 421.6L1065.3 417.4V404.3L1072.6 408.5Z" fill="#F2C94C"/>
<path d="M1072.6 392.4V405.5L1065.3 401.3L1065.4 388.2L1072.6 392.4Z" fill="#B1A4FA"/>
<path d="M1072.5 440.7V453.8L1065.2 449.6V436.5L1072.5 440.7Z" fill="#F2C94C"/>
<path d="M1072.5 424.6V437.7L1065.3 433.5V420.4L1072.5 424.6Z" fill="#F2C94C"/>
<path d="M1072.1 569.4V582.6L1064.8 578.4L1064.9 565.2L1072.1 569.4Z" fill="#F2C94C"/>
<path d="M1072.2 553.3L1072.1 566.4L1064.9 562.3V549.1L1072.2 553.3Z" fill="#F2C94C"/>
<path d="M1072.2 537.2V550.4L1064.9 546.2L1065 533L1072.2 537.2Z" fill="#F2C94C"/>
<path d="M1072.3 521.1L1072.2 534.3L1065 530.1V516.9L1072.3 521.1Z" fill="#F2C94C"/>
<path d="M1072.3 505V518.2L1065 514L1065.1 500.9L1072.3 505Z" fill="#F2C94C"/>
<path d="M1072.4 488.9L1072.3 502.1L1065.1 497.9V484.7L1072.4 488.9Z" fill="#F2C94C"/>
<path d="M1072.4 472.8V486L1065.1 481.8L1065.2 468.7L1072.4 472.8Z" fill="#B1A4FA"/>
<path d="M1072.4 456.8V469.9L1065.2 465.7V452.6L1072.4 456.8Z" fill="#F2C94C"/>
<path d="M1072 617.7V630.8L1064.7 626.6V613.5L1072 617.7Z" fill="#F2C94C"/>
<path d="M1072 601.6V614.7L1064.7 610.6L1064.8 597.4L1072 601.6Z" fill="#B1A4FA"/>
<path d="M1072.1 585.5L1072 598.6L1064.8 594.5V581.3L1072.1 585.5Z" fill="#F2C94C"/>
<path d="M1071.9 633.8V646.9L1064.7 642.7V629.6L1071.9 633.8Z" fill="#F2C94C"/>
<path d="M1071.9 649.9V663L1064.6 658.8V645.7L1071.9 649.9Z" fill="#F2C94C"/>
<path d="M1071.9 666L1071.8 679.1L1064.6 674.9V661.8L1071.9 666Z" fill="#F2C94C"/>
<path d="M1065.4 388.2L1065.3 401.3L1072.6 405.5V408.5L1065.3 404.3V417.4L1072.5 421.6V424.6L1065.3 420.4V433.5L1072.5 437.7V440.7L1065.2 436.5V449.6L1072.5 453.8L1072.4 456.8L1065.2 452.6V465.7L1072.4 469.9V472.8L1065.2 468.7L1065.1 481.8L1072.4 486V488.9L1065.1 484.7V497.9L1072.3 502.1V505L1065.1 500.9L1065 514L1072.3 518.2V521.1L1065 516.9V530.1L1072.2 534.3V537.2L1065 533L1064.9 546.2L1072.2 550.4V553.3L1064.9 549.1V562.3L1072.1 566.4V569.4L1064.9 565.2L1064.8 578.4L1072.1 582.6V585.5L1064.8 581.3V594.5L1072 598.6V601.6L1064.8 597.4L1064.7 610.6L1072 614.7V617.7L1064.7 613.5V626.6L1072 630.8L1071.9 633.8L1064.7 629.6V642.7L1071.9 646.9V649.9L1064.6 645.7V658.8L1071.9 663V666L1064.6 661.8V674.9L1071.8 679.1V690.7L1064.5 686.5L1065.4 388.2Z" fill="#A291F9"/>
<path d="M1090 402.4L1089.9 415.5L1082.7 411.3V398.2L1090 402.4Z" fill="#F2C94C"/>
<path d="M1089.8 450.7V463.8L1082.5 459.6L1082.6 446.5L1089.8 450.7Z" fill="#F2C94C"/>
<path d="M1089.9 434.6L1089.8 447.7L1082.6 443.5V430.4L1089.9 434.6Z" fill="#F2C94C"/>
<path d="M1089.9 418.5V431.6L1082.6 427.4L1082.7 414.3L1089.9 418.5Z" fill="#F2C94C"/>
<path d="M1089.7 482.8V496L1082.4 491.8L1082.5 478.7L1089.7 482.8Z" fill="#F2C94C"/>
<path d="M1089.8 466.8L1089.7 479.9L1082.5 475.7V462.6L1089.8 466.8Z" fill="#F2C94C"/>
<path d="M1089.7 498.9L1089.6 512.1L1082.4 507.9V494.7L1089.7 498.9Z" fill="#F2C94C"/>
<path d="M1089.6 515V528.2L1082.3 524L1082.4 510.9L1089.6 515Z" fill="#F2C94C"/>
<path d="M1089.4 595.5V608.6L1082.1 604.5L1082.2 591.3L1089.4 595.5Z" fill="#F2C94C"/>
<path d="M1089.5 579.4L1089.4 592.6L1082.2 588.4V575.2L1089.5 579.4Z" fill="#F2C94C"/>
<path d="M1089.5 563.3V576.4L1082.2 572.3V559.1L1089.5 563.3Z" fill="#F2C94C"/>
<path d="M1089.5 547.2V560.4L1082.3 556.2V543L1089.5 547.2Z" fill="#F2C94C"/>
<path d="M1089.6 531.1V544.3L1082.3 540.1V526.9L1089.6 531.1Z" fill="#B1A4FA"/>
<path d="M1089.3 627.7V640.8L1082 636.6L1082.1 623.5L1089.3 627.7Z" fill="#B1A4FA"/>
<path d="M1089.4 611.6L1089.3 624.7L1082.1 620.6V607.4L1089.4 611.6Z" fill="#F2C94C"/>
<path d="M1089.2 676L1089.1 689.1L1081.9 684.9V671.8L1089.2 676Z" fill="#F2C94C"/>
<path d="M1089.2 659.9V673L1081.9 668.8L1082 655.7L1089.2 659.9Z" fill="#B1A4FA"/>
<path d="M1089.3 643.8L1089.2 656.9L1082 652.7V639.6L1089.3 643.8Z" fill="#F2C94C"/>
<path d="M1082.7 398.2V411.3L1089.9 415.5V418.5L1082.7 414.3L1082.6 427.4L1089.9 431.6V434.6L1082.6 430.4V443.5L1089.8 447.7V450.7L1082.6 446.5L1082.5 459.6L1089.8 463.8V466.8L1082.5 462.6V475.7L1089.7 479.9V482.8L1082.5 478.7L1082.4 491.8L1089.7 496V498.9L1082.4 494.7V507.9L1089.6 512.1V515L1082.4 510.9L1082.3 524L1089.6 528.2V531.1L1082.3 526.9V540.1L1089.6 544.3L1089.5 547.2L1082.3 543V556.2L1089.5 560.4V563.3L1082.2 559.1V572.3L1089.5 576.4V579.4L1082.2 575.2V588.4L1089.4 592.6V595.5L1082.2 591.3L1082.1 604.5L1089.4 608.6V611.6L1082.1 607.4V620.6L1089.3 624.7V627.7L1082.1 623.5L1082 636.6L1089.3 640.8V643.8L1082 639.6V652.7L1089.2 656.9V659.9L1082 655.7L1081.9 668.8L1089.2 673V676L1081.9 671.8V684.9L1089.1 689.1V700.7L1081.9 696.5L1082.7 398.2Z" fill="#A291F9"/>
<path d="M1107.1 460.7V473.8L1099.8 469.6L1099.9 456.5L1107.1 460.7Z" fill="#F2C94C"/>
<path d="M1107.2 444.6L1107.1 457.7L1099.9 453.5V440.4L1107.2 444.6Z" fill="#F2C94C"/>
<path d="M1106.9 557.2L1106.8 570.4L1099.6 566.2V553L1106.9 557.2Z" fill="#F2C94C"/>
<path d="M1106.9 541.1V554.3L1099.6 550.1L1099.7 536.9L1106.9 541.1Z" fill="#F2C94C"/>
<path d="M1106.8 589.4L1106.7 602.5L1099.5 598.4V585.2L1106.8 589.4Z" fill="#F2C94C"/>
<path d="M1106.8 573.3V586.4L1099.5 582.3L1099.6 569.1L1106.8 573.3Z" fill="#F2C94C"/>
<path d="M1100 408.2V421.3L1107.2 425.5V428.5L1100 424.3L1099.9 437.4L1107.2 441.6V444.6L1099.9 440.4V453.5L1107.1 457.7V460.7L1099.9 456.5L1099.8 469.6L1107.1 473.8V476.7L1099.8 472.6V485.7L1107 489.9V492.8L1099.8 488.7V501.8L1107 506V508.9L1099.7 504.7V517.9L1107 522.1L1106.9 525L1099.7 520.9V534L1106.9 538.2V541.1L1099.7 536.9L1099.6 550.1L1106.9 554.3V557.2L1099.6 553V566.2L1106.8 570.4V573.3L1099.6 569.1L1099.5 582.3L1106.8 586.4V589.4L1099.5 585.2V598.4L1106.7 602.5V605.5L1099.5 601.3L1099.4 614.5L1106.7 618.6V621.6L1099.4 617.4V630.6L1106.6 634.7V637.7L1099.4 633.5L1099.3 646.6L1106.6 650.8V653.8L1099.3 649.6V662.7L1106.5 666.9V669.9L1099.3 665.7V678.8L1106.5 683V686L1099.2 681.8V694.9L1106.5 699.1L1106.4 710.7L1099.2 706.5L1100 408.2Z" fill="#A291F9"/>
<path d="M1107.2 428.5V441.6L1099.9 437.4L1100 424.3L1107.2 428.5Z" fill="#B1A4FA"/>
<path d="M1107.3 412.4L1107.2 425.5L1100 421.3V408.2L1107.3 412.4Z" fill="#F2C94C"/>
<path d="M1107.1 476.7L1107 489.9L1099.8 485.7V472.6L1107.1 476.7Z" fill="#F2C94C"/>
<path d="M1107 492.8V506L1099.8 501.8V488.7L1107 492.8Z" fill="#B1A4FA"/>
<path d="M1106.9 525V538.2L1099.7 534V520.9L1106.9 525Z" fill="#F2C94C"/>
<path d="M1107 508.9V522.1L1099.7 517.9V504.7L1107 508.9Z" fill="#B1A4FA"/>
<path d="M1106.5 686V699.1L1099.2 694.9V681.8L1106.5 686Z" fill="#F2C94C"/>
<path d="M1106.5 669.9V683L1099.3 678.8V665.7L1106.5 669.9Z" fill="#F2C94C"/>
<path d="M1106.6 653.8L1106.5 666.9L1099.3 662.7V649.6L1106.6 653.8Z" fill="#F2C94C"/>
<path d="M1106.6 637.7V650.8L1099.3 646.6L1099.4 633.5L1106.6 637.7Z" fill="#F2C94C"/>
<path d="M1106.7 621.6L1106.6 634.7L1099.4 630.6V617.4L1106.7 621.6Z" fill="#F2C94C"/>
<path d="M1106.7 605.5V618.6L1099.4 614.5L1099.5 601.3L1106.7 605.5Z" fill="#F2C94C"/>
<path d="M1123.9 663.8V676.9L1116.6 672.7V659.6L1123.9 663.8Z" fill="#F2C94C"/>
<path d="M1117.3 418.2V431.3L1124.5 435.5V438.5L1117.3 434.3L1117.2 447.4L1124.5 451.6V454.6L1117.2 450.4V463.5L1124.5 467.7L1124.4 470.7L1117.2 466.5V479.6L1124.4 483.8V486.7L1117.1 482.6V495.7L1124.4 499.9V502.8L1117.1 498.6V511.8L1124.3 516V518.9L1117.1 514.7L1117 527.9L1124.3 532.1V535L1117 530.8V544L1124.2 548.2V551.1L1117 546.9L1116.9 560.1L1124.2 564.3V567.2L1116.9 563V576.2L1124.1 580.4V583.3L1116.9 579.1L1116.8 592.3L1124.1 596.4V599.4L1116.8 595.2V608.4L1124 612.5V615.5L1116.8 611.3L1116.7 624.5L1124 628.6V631.6L1116.7 627.4V640.5L1124 644.7L1123.9 647.7L1116.7 643.5V656.6L1123.9 660.8V663.8L1116.6 659.6V672.7L1123.9 676.9V679.9L1116.6 675.7V688.8L1123.8 693V696L1116.6 691.8L1116.5 704.9L1123.8 709.1L1123.7 720.7L1116.5 716.5L1117.3 418.2Z" fill="#A291F9"/>
<path d="M1123.8 696V709.1L1116.5 704.9L1116.6 691.8L1123.8 696Z" fill="#F2C94C"/>
<path d="M1123.9 679.9L1123.8 693L1116.6 688.8V675.7L1123.9 679.9Z" fill="#F2C94C"/>
<path d="M1123.9 647.7V660.8L1116.7 656.6V643.5L1123.9 647.7Z" fill="#F2C94C"/>
<path d="M1124 631.6V644.7L1116.7 640.5V627.4L1124 631.6Z" fill="#F2C94C"/>
<path d="M1124 615.5V628.6L1116.7 624.5L1116.8 611.3L1124 615.5Z" fill="#F2C94C"/>
<path d="M1124.1 599.4L1124 612.5L1116.8 608.4V595.2L1124.1 599.4Z" fill="#F2C94C"/>
<path d="M1124.1 583.3V596.4L1116.8 592.3L1116.9 579.1L1124.1 583.3Z" fill="#B1A4FA"/>
<path d="M1124.3 535L1124.2 548.2L1117 544V530.8L1124.3 535Z" fill="#F2C94C"/>
<path d="M1124.3 518.9V532.1L1117 527.9L1117.1 514.7L1124.3 518.9Z" fill="#F2C94C"/>
<path d="M1124.5 438.5V451.6L1117.2 447.4L1117.3 434.3L1124.5 438.5Z" fill="#F2C94C"/>
<path d="M1124.6 422.4L1124.5 435.5L1117.3 431.3V418.2L1124.6 422.4Z" fill="#F2C94C"/>
<path d="M1124.5 454.6V467.7L1117.2 463.5V450.4L1124.5 454.6Z" fill="#F2C94C"/>
<path d="M1124.4 502.8L1124.3 516L1117.1 511.8V498.6L1124.4 502.8Z" fill="#F2C94C"/>
<path d="M1124.4 486.7V499.9L1117.1 495.7V482.6L1124.4 486.7Z" fill="#F2C94C"/>
<path d="M1124.4 470.7V483.8L1117.2 479.6V466.5L1124.4 470.7Z" fill="#B1A4FA"/>
<path d="M1124.2 551.1V564.3L1116.9 560.1L1117 546.9L1124.2 551.1Z" fill="#B1A4FA"/>
<path d="M1124.2 567.2L1124.1 580.4L1116.9 576.2V563L1124.2 567.2Z" fill="#F2C94C"/>
<path d="M1162.1 547.6V560.7L1154.9 564.9V551.8L1162.1 547.6Z" fill="#F2C94C"/>
<path d="M1162.1 531.5V544.6L1154.9 548.8L1154.8 535.7L1162.1 531.5Z" fill="#F2C94C"/>
<path d="M1162.1 563.7L1162.2 576.8L1154.9 581V567.8L1162.1 563.7Z" fill="#F2C94C"/>
<path d="M1162.2 579.8V592.9L1155 597.1V583.9L1162.2 579.8Z" fill="#F2C94C"/>
<path d="M1162.4 660.2L1162.5 673.4L1155.2 677.5V664.4L1162.4 660.2Z" fill="#F2C94C"/>
<path d="M1162.4 644.1V657.3L1155.2 661.5L1155.1 648.3L1162.4 644.1Z" fill="#F2C94C"/>
<path d="M1162.3 628L1162.4 641.2L1155.1 645.4V632.2L1162.3 628Z" fill="#F2C94C"/>
<path d="M1162.3 611.9V625.1L1155.1 629.3L1155 616.1L1162.3 611.9Z" fill="#F2C94C"/>
<path d="M1162.2 595.8L1162.3 609L1155 613.2V600L1162.2 595.8Z" fill="#F2C94C"/>
<path d="M1154.5 423V436.1L1161.8 432V434.9L1154.5 439.1L1154.6 452.2L1161.8 448V451L1154.6 455.2V468.3L1161.9 464.1V467.1L1154.6 471.3L1154.7 484.4L1161.9 480.2V483.2L1154.7 487.4V500.5L1162 496.3V499.3L1154.7 503.5L1154.8 516.6L1162 512.4V515.4L1154.8 519.6V532.7L1162 528.5L1162.1 531.5L1154.8 535.7L1154.9 548.8L1162.1 544.6V547.6L1154.9 551.8V564.9L1162.1 560.7V563.7L1154.9 567.8V581L1162.2 576.8V579.8L1155 583.9V597.1L1162.2 592.9V595.8L1155 600V613.2L1162.3 609V611.9L1155 616.1L1155.1 629.3L1162.3 625.1V628L1155.1 632.2V645.4L1162.4 641.2V644.1L1155.1 648.3L1155.2 661.5L1162.4 657.3V660.2L1155.2 664.4V677.5L1162.5 673.4V676.3L1155.2 680.5L1155.3 693.6L1162.5 689.5V692.4L1155.3 696.6V709.7L1162.6 705.6V717.1L1155.3 721.3L1154.5 423Z" fill="#AD9FFA"/>
<path d="M1162.5 692.4L1162.6 705.6L1155.3 709.7V696.6L1162.5 692.4Z" fill="#F2C94C"/>
<path d="M1162.5 676.3V689.5L1155.3 693.6L1155.2 680.5L1162.5 676.3Z" fill="#F2C94C"/>
<path d="M1162 515.4V528.5L1154.8 532.7V519.6L1162 515.4Z" fill="#F2C94C"/>
<path d="M1162 499.3V512.4L1154.8 516.6L1154.7 503.5L1162 499.3Z" fill="#F2C94C"/>
<path d="M1161.9 483.2L1162 496.3L1154.7 500.5V487.4L1161.9 483.2Z" fill="#F2C94C"/>
<path d="M1162 450.9V464L1154.8 468.2L1154.7 455L1162 450.9Z" fill="#F2C94C"/>
<path d="M1161.9 434.8L1162 447.9L1154.7 452.1V439L1161.9 434.8Z" fill="#F2C94C"/>
<path d="M1161.9 418.7V431.8L1154.7 436L1154.6 422.9L1161.9 418.7Z" fill="#F2C94C"/>
<path d="M1161.9 467.1V480.2L1154.7 484.4L1154.6 471.3L1161.9 467.1Z" fill="#F2C94C"/>
<path d="M1179.2 408.7V421.8L1172 426L1171.9 412.9L1179.2 408.7Z" fill="#F2C94C"/>
<path d="M1179.7 634.1V647.3L1172.5 651.5L1172.4 638.3L1179.7 634.1Z" fill="#F2C94C"/>
<path d="M1179.7 618V631.2L1172.4 635.4V622.2L1179.7 618Z" fill="#F2C94C"/>
<path d="M1179.6 601.9V615.1L1172.4 619.3V606.1L1179.6 601.9Z" fill="#F2C94C"/>
<path d="M1179.6 585.8V599L1172.3 603.2V590L1179.6 585.8Z" fill="#F2C94C"/>
<path d="M1179.5 569.8L1179.6 582.9L1172.3 587.1V573.9L1179.5 569.8Z" fill="#F2C94C"/>
<path d="M1179.7 650.2L1179.8 663.4L1172.5 667.5V654.4L1179.7 650.2Z" fill="#F2C94C"/>
<path d="M1171.8 413V426.1L1179.1 422V424.9L1171.9 429.1V442.2L1179.1 438V441L1171.9 445.2V458.3L1179.2 454.1V457.1L1171.9 461.3L1172 474.4L1179.2 470.2V473.2L1172 477.4V490.5L1179.3 486.3V489.3L1172 493.5L1172.1 506.6L1179.3 502.4V505.4L1172.1 509.6V522.7L1179.4 518.5V521.5L1172.1 525.7L1172.2 538.8L1179.4 534.6V537.6L1172.2 541.8V554.9L1179.5 550.7V553.7L1172.2 557.9L1172.3 571L1179.5 566.8V569.8L1172.3 573.9V587.1L1179.6 582.9V585.8L1172.3 590V603.2L1179.6 599V601.9L1172.4 606.1V619.3L1179.6 615.1L1179.7 618L1172.4 622.2V635.4L1179.7 631.2V634.1L1172.4 638.3L1172.5 651.5L1179.7 647.3V650.2L1172.5 654.4V667.5L1179.8 663.4V666.3L1172.5 670.5L1172.6 683.7L1179.8 679.5V682.4L1172.6 686.6V699.7L1179.9 695.6V707.1L1172.7 711.3L1171.8 413Z" fill="#AD9FFA"/>
<path d="M1179.8 682.4L1179.9 695.6L1172.6 699.7V686.6L1179.8 682.4Z" fill="#F2C94C"/>
<path d="M1179.8 666.3V679.5L1172.6 683.7L1172.5 670.5L1179.8 666.3Z" fill="#F2C94C"/>
<path d="M1179.5 553.7V566.8L1172.3 571L1172.2 557.9L1179.5 553.7Z" fill="#F2C94C"/>
<path d="M1179.4 537.6L1179.5 550.7L1172.2 554.9V541.8L1179.4 537.6Z" fill="#F2C94C"/>
<path d="M1179.4 521.5V534.6L1172.2 538.8L1172.1 525.7L1179.4 521.5Z" fill="#F2C94C"/>
<path d="M1179.3 505.4L1179.4 518.5L1172.1 522.7V509.6L1179.3 505.4Z" fill="#F2C94C"/>
<path d="M1179.3 489.3V502.4L1172.1 506.6L1172 493.5L1179.3 489.3Z" fill="#F2C94C"/>
<path d="M1179.2 473.2L1179.3 486.3L1172 490.5V477.4L1179.2 473.2Z" fill="#F2C94C"/>
<path d="M1179.2 457.1V470.2L1172 474.4L1171.9 461.3L1179.2 457.1Z" fill="#F2C94C"/>
<path d="M1179.3 440.9V454L1172.1 458.2L1172 445.1L1179.3 440.9Z" fill="#F2C94C"/>
<path d="M1179.2 424.8L1179.3 437.9L1172 442.1V429L1179.2 424.8Z" fill="#F2C94C"/>
<path d="M1196.5 431V444.1L1189.3 448.3L1189.2 435.2L1196.5 431Z" fill="#F2C94C"/>
<path d="M1196.4 414.9L1196.5 428.1L1189.2 432.2V419.1L1196.4 414.9Z" fill="#F2C94C"/>
<path d="M1196.7 527.6L1196.8 540.7L1189.5 544.9V531.8L1196.7 527.6Z" fill="#F2C94C"/>
<path d="M1196.7 511.5V524.6L1189.5 528.8L1189.4 515.7L1196.7 511.5Z" fill="#F2C94C"/>
<path d="M1196.6 495.4L1196.7 508.5L1189.4 512.7V499.6L1196.6 495.4Z" fill="#F2C94C"/>
<path d="M1196.6 479.3V492.4L1189.4 496.6V483.5L1196.6 479.3Z" fill="#F2C94C"/>
<path d="M1196.6 463.2V476.3L1189.3 480.5V467.4L1196.6 463.2Z" fill="#F2C94C"/>
<path d="M1196.5 447.1V460.2L1189.3 464.4V451.3L1196.5 447.1Z" fill="#F2C94C"/>
<path d="M1196.8 559.8L1196.9 572.9L1189.6 577.1V563.9L1196.8 559.8Z" fill="#F2C94C"/>
<path d="M1196.8 543.7V556.8L1189.6 561L1189.5 547.9L1196.8 543.7Z" fill="#F2C94C"/>
<path d="M1197.1 640.2V653.4L1189.8 657.5V644.4L1197.1 640.2Z" fill="#F2C94C"/>
<path d="M1197 624.1V637.3L1189.8 641.5V628.3L1197 624.1Z" fill="#F2C94C"/>
<path d="M1197.1 672.4L1197.2 685.6L1189.9 689.7V676.6L1197.1 672.4Z" fill="#F2C94C"/>
<path d="M1197 608.1V621.2L1189.8 625.4L1189.7 612.2L1197 608.1Z" fill="#F2C94C"/>
<path d="M1189.1 403L1189.2 416.1L1196.4 412V414.9L1189.2 419.1V432.2L1196.5 428.1V431L1189.2 435.2L1189.3 448.3L1196.5 444.1V447.1L1189.3 451.3V464.4L1196.5 460.2L1196.6 463.2L1189.3 467.4V480.5L1196.6 476.3V479.3L1189.4 483.5V496.6L1196.6 492.4V495.4L1189.4 499.6V512.7L1196.7 508.5V511.5L1189.4 515.7L1189.5 528.8L1196.7 524.6V527.6L1189.5 531.8V544.9L1196.8 540.7V543.7L1189.5 547.9L1189.6 561L1196.8 556.8V559.8L1189.6 563.9V577.1L1196.9 572.9V575.9L1189.6 580L1189.7 593.2L1196.9 589V591.9L1189.7 596.1V609.3L1197 605.1V608.1L1189.7 612.2L1189.8 625.4L1197 621.2V624.1L1189.8 628.3V641.5L1197 637.3L1197.1 640.2L1189.8 644.4V657.5L1197.1 653.4V656.3L1189.9 660.5V673.7L1197.1 669.5V672.4L1189.9 676.6V689.7L1197.2 685.6V697.1L1190 701.3L1189.1 403Z" fill="#AD9FFA"/>
<path d="M1196.9 591.9L1197 605.1L1189.7 609.3V596.1L1196.9 591.9Z" fill="white"/>
<path d="M1196.9 575.9V589L1189.7 593.2L1189.6 580L1196.9 575.9Z" fill="#F2C94C"/>
<path d="M1196.5 398.7V411.8L1189.3 416V402.9L1196.5 398.7Z" fill="#F2C94C"/>
<path d="M1197.1 656.3V669.5L1189.9 673.7V660.5L1197.1 656.3Z" fill="#F2C94C"/>
<path d="M1214.1 533.7V546.8L1206.9 551L1206.8 537.9L1214.1 533.7Z" fill="#F2C94C"/>
<path d="M1214.5 662.4V675.6L1207.2 679.8V666.6L1214.5 662.4Z" fill="#F2C94C"/>
<path d="M1214.4 630.2V643.4L1207.2 647.6L1207.1 634.4L1214.4 630.2Z" fill="#AD9FFA"/>
<path d="M1214.3 614.1L1214.4 627.3L1207.1 631.5V618.3L1214.3 614.1Z" fill="#AD9FFA"/>
<path d="M1214.3 598.1V611.2L1207.1 615.4L1207 602.2L1214.3 598.1Z" fill="#AD9FFA"/>
<path d="M1206.4 393L1206.5 406.1L1213.7 402V404.9L1206.5 409.1V422.2L1213.8 418.1V421L1206.5 425.2L1206.6 438.3L1213.8 434.1V437.1L1206.6 441.3V454.4L1213.9 450.2V453.2L1206.6 457.4L1206.7 470.5L1213.9 466.3V469.3L1206.7 473.5V486.6L1214 482.4V485.4L1206.7 489.6V502.7L1214 498.5V501.5L1206.8 505.7V518.8L1214 514.6L1214.1 517.6L1206.8 521.8V534.9L1214.1 530.7V533.7L1206.8 537.9L1206.9 551L1214.1 546.8V549.8L1206.9 553.9V567.1L1214.2 562.9V565.9L1206.9 570L1207 583.2L1214.2 579V581.9L1207 586.1V599.3L1214.3 595.1V598.1L1207 602.2L1207.1 615.4L1214.3 611.2V614.1L1207.1 618.3V631.5L1214.4 627.3V630.2L1207.1 634.4L1207.2 647.6L1214.4 643.4V646.3L1207.2 650.5V663.7L1214.5 659.5V662.4L1207.2 666.6V679.8L1214.5 675.6V687.1L1207.3 691.3L1206.4 393Z" fill="#AD9FFA"/>
<path d="M1214.2 565.9V579L1207 583.2L1206.9 570L1214.2 565.9Z" fill="#AD9FFA"/>
<path d="M1214.1 549.8L1214.2 562.9L1206.9 567.1V553.9L1214.1 549.8Z" fill="#AD9FFA"/>
<path d="M1213.8 437.1L1213.9 450.2L1206.6 454.4V441.3L1213.8 437.1Z" fill="#F2C94C"/>
<path d="M1213.8 421V434.1L1206.6 438.3L1206.5 425.2L1213.8 421Z" fill="#F2C94C"/>
<path d="M1213.7 404.9L1213.8 418.1L1206.5 422.2V409.1L1213.7 404.9Z" fill="#F2C94C"/>
<path d="M1213.7 388.8V402L1206.5 406.1L1206.4 393L1213.7 388.8Z" fill="#F2C94C"/>
<path d="M1213.9 469.3L1214 482.4L1206.7 486.6V473.5L1213.9 469.3Z" fill="#F2C94C"/>
<path d="M1213.9 453.2V466.3L1206.7 470.5L1206.6 457.4L1213.9 453.2Z" fill="#F2C94C"/>
<path d="M1214.1 517.6V530.7L1206.8 534.9V521.8L1214.1 517.6Z" fill="#F2C94C"/>
<path d="M1214 501.5V514.6L1206.8 518.8V505.7L1214 501.5Z" fill="#F2C94C"/>
<path d="M1214 485.4V498.5L1206.7 502.7V489.6L1214 485.4Z" fill="#F2C94C"/>
<path d="M1214.2 581.9L1214.3 595.1L1207 599.3V586.1L1214.2 581.9Z" fill="#F2C94C"/>
<path d="M1214.4 646.3L1214.5 659.5L1207.2 663.7V650.5L1214.4 646.3Z" fill="#F2C94C"/>
<path d="M1204.8 333.4L1204.7 361.1L1139.6 399L1139.7 371.2L1204.8 333.4Z" fill="#AD9FFA"/>
<path d="M1139.7 371.2L1139.6 399L1074 361.1L1074.1 333.3L1139.7 371.2Z" fill="#9886F9"/>
<path d="M1204.8 333.4L1139.7 371.2L1074.1 333.3L1139.2 295.5L1204.8 333.4Z" fill="#333333"/>
<path d="M1193.3 318.1V332L1139.6 363.2V349.4L1193.3 318.1Z" fill="#AD9FFA"/>
<path d="M1139.6 349.4V363.2L1085.5 332V318.1L1139.6 349.4Z" fill="#9B8AF9"/>
<path d="M1193.3 318.1L1139.6 349.4L1085.5 318.1L1139.2 286.9L1193.3 318.1Z" fill="#333333"/>
<path d="M1139.5 315.4V227.2L1097.5 318.2L1139.5 342.5V315.4Z" fill="#333333"/>
<path d="M1139.5 227.2L1181.3 318.2L1139.5 342.5V227.2Z" fill="#AA9BFA"/>
<path d="M1052.4 679.1L1139.2 728.6V755.2L1052.4 705V679.1Z" fill="#333333"/>
<path d="M1225.6 679.4L1139.2 728.6V755.2L1225.5 705L1225.6 679.4Z" fill="#A899FA"/>
<path d="M1538.9 612C1515.7 625.5 1478 625.5 1454.7 612L1342 546.9L1341.3 784.7L1454 849.8C1477.3 863.3 1515 863.3 1538.2 849.8L1595.4 816.6L1596.1 578.8L1538.9 612Z" fill="#B1A4FA"/>
<path d="M1596.1 578.8L1538.9 612C1515.7 625.5 1478 625.5 1454.7 612L1342 546.9L1441.2 489.3L1596.1 578.8Z" fill="#8873F8"/>
<path d="M1532.8 592.6C1513.5 603.8 1482.2 603.8 1462.8 592.6L1433.5 575.7V591.6L1462.8 608.5C1482.2 619.7 1513.5 619.7 1532.8 608.5L1580.3 580.9V565L1532.8 592.6Z" fill="#AC9DFA"/>
<path d="M1580.4 565L1532.9 592.6C1513.6 603.8 1482.3 603.8 1462.9 592.6L1433.6 575.7L1516 527.8L1580.4 565Z" fill="#CAC1FC"/>
<path d="M1373.4 549.7V552.7L1410 573.9V571L1373.4 549.7Z" fill="#6FCF97"/>
<path d="M1410 571V573.9L1425.5 565V562.1L1410 571Z" fill="#6FCF97"/>
<path d="M1373.4 549.7L1410 571L1425.5 562.1L1388.9 540.8L1373.4 549.7Z" fill="#816BF7"/>
<path d="M1437.2 512.4V515.3L1473.9 536.6L1473.8 533.6L1437.2 512.4Z" fill="#6FCF97"/>
<path d="M1473.8 533.6L1473.9 536.6L1489.4 527.6V524.7L1473.8 533.6Z" fill="#6FCF97"/>
<path d="M1437.2 512.4L1473.8 533.6L1489.4 524.7L1452.8 503.4L1437.2 512.4Z" fill="#816BF7"/>
<path d="M1455.6 527.1L1436.9 538C1433.2 540.2 1427.1 540.2 1423.4 538L1413.1 532.1C1411.2 531 1410.3 529.6 1410.3 528.2V543.3C1410.3 544.7 1411.2 546.2 1413.1 547.2L1423.4 553.1C1427.1 555.3 1433.2 555.3 1436.9 553.1L1455.6 542.2C1457.4 541.1 1458.4 539.7 1458.4 538.3V523.2C1458.4 524.6 1457.5 526 1455.6 527.1Z" fill="#7F69F7"/>
<path d="M1455.6 519.3C1459.3 521.5 1459.4 525 1455.6 527.1L1436.9 538C1433.2 540.2 1427.1 540.2 1423.4 538L1413.1 532.1C1409.4 529.9 1409.3 526.4 1413.1 524.3L1431.8 513.4C1435.5 511.2 1441.6 511.2 1445.3 513.4L1455.6 519.3Z" fill="#B1A4FA"/>
<path d="M1450.5 532.1L1450.6 545.1L1441.4 550.4V537.4L1450.5 532.1Z" fill="#664BF6"/>
<path d="M1539.2 636.5L1596 603.5V590.8L1539.2 623.8C1515.7 637.5 1477.3 637.5 1453.6 623.8L1341.8 559.3V572L1453.6 636.5C1477.3 650.2 1515.7 650.2 1539.2 636.5Z" fill="#F2C94C"/>
<path d="M1539.2 659.9L1595.9 626.9V614.2L1539.2 647.2C1515.7 660.9 1477.3 660.9 1453.6 647.2L1341.8 582.6V595.3L1453.6 659.9C1477.3 673.5 1515.7 673.5 1539.2 659.9Z" fill="#F2C94C"/>
<path d="M1453.7 670.5L1341.8 605.9V618.6L1453.7 683.2C1477.4 696.9 1515.8 696.9 1539.3 683.2L1596 650.3V637.6L1539.3 670.5C1515.8 684.2 1477.4 684.2 1453.7 670.5Z" fill="#F2C94C"/>
<path d="M1453.7 693.8L1341.7 629.2V641.9L1453.7 706.5C1477.4 720.2 1515.8 720.2 1539.3 706.5L1595.9 673.6V660.9L1539.3 693.8C1515.8 707.5 1477.4 707.5 1453.7 693.8Z" fill="#F2C94C"/>
<path d="M1453.7 717.2L1341.7 652.5V665.2L1453.7 729.9C1477.4 743.6 1515.8 743.6 1539.3 729.9L1595.8 697.1V684.4L1539.3 717.2C1515.8 730.8 1477.4 730.8 1453.7 717.2Z" fill="#F2C94C"/>
<path d="M1453.7 740.5L1341.6 675.8V688.5L1453.7 753.2C1477.4 766.9 1515.8 766.9 1539.3 753.2L1595.8 720.4V707.7L1539.3 740.5C1515.8 754.2 1477.4 754.2 1453.7 740.5Z" fill="#F2C94C"/>
<path d="M1453.7 763.9L1341.5 699.1V711.8L1453.7 776.6C1477.4 790.3 1515.8 790.3 1539.3 776.6L1595.7 743.8V731.1L1539.3 763.9C1515.8 777.5 1477.4 777.5 1453.7 763.9Z" fill="#F2C94C"/>
<path d="M1453.7 787.5L1341.5 722.7V735.4L1453.7 800.2C1477.4 813.9 1515.8 813.9 1539.3 800.2L1595.7 767.4V754.7L1539.3 787.5C1515.8 801.1 1477.4 801.1 1453.7 787.5Z" fill="#F2C94C"/>
<path d="M1384.7 671.2L1386.4 670.2L1386.2 748.7L1384.5 749.7L1384.7 671.2Z" fill="#917DF8"/>
<path d="M1349.9 651.2L1351.7 650.2L1386.4 670.2L1384.7 671.2L1349.9 651.2Z" fill="#917DF8"/>
<path d="M1384.7 671.2L1384.5 749.7L1349.7 729.6L1349.9 651.2L1384.7 671.2Z" fill="#DFD9FD"/>
<path d="M1384.7 676.2V684.2C1383.7 683 1382.5 682.1 1381.3 681.4C1376.2 678.5 1370.8 680.4 1373.7 692C1378.4 710.2 1367.9 709.1 1358.3 706.4C1354.1 705.2 1351.5 707.3 1349.7 709.9V724.6L1384.5 744.7L1349.7 724.6L1349.9 656.1L1384.7 676.2Z" fill="#CAC1FC"/>
<path d="M1381.3 681.4C1382.5 682.1 1383.6 683 1384.7 684.2L1384.5 744.7L1349.7 724.6V709.9C1351.4 707.2 1354.1 705.2 1358.3 706.4C1367.9 709.1 1378.4 710.3 1373.7 692C1370.8 680.4 1376.2 678.4 1381.3 681.4Z" fill="#9886F9"/>
<path d="M1356 653.8C1356 654.6 1355.3 655.3 1354.5 655.3C1353.7 655.3 1353 654.6 1353 653.8C1353 653 1353.7 652.3 1354.5 652.3C1355.4 652.3 1356 653 1356 653.8Z" fill="white"/>
<path d="M1381.2 668.2C1381.2 669 1380.5 669.7 1379.7 669.7C1378.9 669.7 1378.2 669 1378.2 668.2C1378.2 667.4 1378.9 666.7 1379.7 666.7C1380.5 666.7 1381.2 667.4 1381.2 668.2Z" fill="white"/>
<path d="M1532.2 565.2L1506.5 580.1L1500.6 576.8L1511.4 570.5L1501.8 564.9L1491 571.2L1485.2 567.8L1510.9 552.9L1516.7 556.3L1506.8 562L1516.5 567.6L1526.3 561.8L1532.2 565.2Z" fill="white"/>
<path d="M1532.3 552.8C1519.2 545.2 1498 545.2 1484.9 552.8C1471.9 560.4 1472 572.7 1485.1 580.2C1498.2 587.8 1519.4 587.8 1532.4 580.2C1545.4 572.7 1545.4 560.4 1532.3 552.8ZM1531.1 579.5C1518.8 586.6 1498.7 586.6 1486.4 579.5C1474 572.4 1474 560.7 1486.3 553.6C1498.6 546.5 1518.7 546.5 1531 553.6C1543.3 560.7 1543.4 572.3 1531.1 579.5Z" fill="white"/>
<path d="M1435.1 575.7C1435.1 576.5 1434.4 577.2 1433.6 577.2C1432.8 577.2 1432.1 576.5 1432.1 575.7C1432.1 574.9 1432.8 574.2 1433.6 574.2C1434.4 574.2 1435.1 574.8 1435.1 575.7Z" fill="white"/>
<path d="M1517.9 527.2C1517.9 528 1517.2 528.7 1516.4 528.7C1515.6 528.7 1514.9 528 1514.9 527.2C1514.9 526.4 1515.6 525.7 1516.4 525.7C1517.2 525.7 1517.9 526.4 1517.9 527.2Z" fill="white"/>
<path d="M1581.9 565C1581.9 565.8 1581.2 566.5 1580.4 566.5C1579.6 566.5 1578.9 565.8 1578.9 565C1578.9 564.2 1579.6 563.5 1580.4 563.5C1581.2 563.5 1581.9 564.1 1581.9 565Z" fill="white"/>
<path d="M1552.2 841.7V816.5L1567 806.8V833.1L1552.2 841.7Z" fill="#F2C94C"/>
<path d="M1377.8 805.8L1413 826.1V802L1377.8 781.9V805.8Z" fill="#F2C94C"/>
<path d="M1414.8 803V827.1L1441.1 842.3V818L1414.8 803Z" fill="#F2C94C"/>
<path d="M1376 780.8L1349.7 765.8V789.6L1376 804.8V780.8Z" fill="#F2C94C"/>
<path d="M814.4 675.9H811.1V694.3C811.1 694.5 811.3 694.8 811.6 695C812.3 695.4 813.3 695.4 814 695C814.3 694.8 814.5 694.6 814.5 694.3V675.9H814.4Z" fill="#7871FF"/>
<path d="M826.4 667C826.4 674.5 820.3 680.7 812.7 680.7C805.1 680.7 799 674.6 799 667C799 659.5 812.7 635.4 812.7 635.4C812.7 635.4 826.4 659.4 826.4 667Z" fill="url(#paint3_linear)"/>
<path d="M859 650.1H855.7V668.5C855.7 668.7 855.9 669 856.2 669.2C856.9 669.6 857.9 669.6 858.6 669.2C858.9 669 859.1 668.8 859.1 668.5V650.1H859Z" fill="#7871FF"/>
<path d="M871 641.1C871 648.6 864.9 654.8 857.3 654.8C849.8 654.8 843.6 648.7 843.6 641.1C843.6 633.5 857.3 609.5 857.3 609.5C857.3 609.5 871 633.6 871 641.1Z" fill="url(#paint4_linear)"/>
<path d="M1420.3 424.6H1417V443C1417 443.2 1417.2 443.5 1417.5 443.7C1418.2 444.1 1419.2 444.1 1419.9 443.7C1420.2 443.5 1420.4 443.3 1420.4 443V424.6H1420.3Z" fill="#7871FF"/>
<path d="M1432.3 415.7C1432.3 423.2 1426.2 429.4 1418.6 429.4C1411 429.4 1404.9 423.3 1404.9 415.7C1404.9 408.2 1418.6 384.1 1418.6 384.1C1418.6 384.1 1432.3 408.1 1432.3 415.7Z" fill="url(#paint5_linear)"/>
<path d="M1092.8 845.6H1089.5V864C1089.5 864.2 1089.7 864.5 1090 864.7C1090.7 865.1 1091.7 865.1 1092.4 864.7C1092.7 864.5 1092.9 864.3 1092.9 864V845.6H1092.8Z" fill="#7871FF"/>
<path d="M1104.8 836.6C1104.8 844.1 1098.7 850.3 1091.1 850.3C1083.5 850.3 1077.4 844.2 1077.4 836.6C1077.4 829.1 1091.1 805 1091.1 805C1091.1 805 1104.8 829.1 1104.8 836.6Z" fill="url(#paint6_linear)"/>
<path d="M1135.6 821H1132.3V839.4C1132.3 839.6 1132.5 839.9 1132.8 840.1C1133.5 840.5 1134.5 840.5 1135.2 840.1C1135.5 839.9 1135.7 839.7 1135.7 839.4V821H1135.6Z" fill="#7871FF"/>
<path d="M1147.6 812C1147.6 819.5 1141.5 825.7 1133.9 825.7C1126.4 825.7 1120.2 819.6 1120.2 812C1120.2 804.5 1133.9 780.4 1133.9 780.4C1133.9 780.4 1147.6 804.5 1147.6 812Z" fill="url(#paint7_linear)"/>
<path d="M1540 942.7H1535.7V966.5C1535.7 966.8 1535.9 967.1 1536.3 967.4C1537.2 967.9 1538.5 967.9 1539.4 967.4C1539.8 967.2 1540 966.8 1540 966.5V942.7Z" fill="#7871FF"/>
<path d="M1555.5 937.1C1555.5 946.9 1547.6 954.8 1537.8 954.8C1528 954.8 1520.1 946.9 1520.1 937.1C1520.1 927.3 1528 919.4 1537.8 919.4C1547.6 919.4 1555.5 927.3 1555.5 937.1Z" fill="url(#paint8_linear)"/>
<path d="M1451.3 844.7H1447V868.5C1447 868.8 1447.2 869.1 1447.6 869.4C1448.5 869.9 1449.8 869.9 1450.7 869.4C1451.1 869.2 1451.3 868.8 1451.3 868.5V844.7Z" fill="#7871FF"/>
<path d="M1466.8 839.1C1466.8 848.9 1458.9 856.8 1449.1 856.8C1439.3 856.8 1431.4 848.9 1431.4 839.1C1431.4 829.3 1439.3 821.4 1449.1 821.4C1458.9 821.4 1466.8 829.3 1466.8 839.1Z" fill="url(#paint9_linear)"/>
<path d="M1385.8 814.5H1381.5V838.3C1381.5 838.6 1381.7 838.9 1382.1 839.2C1383 839.7 1384.3 839.7 1385.2 839.2C1385.6 839 1385.8 838.6 1385.8 838.3V814.5Z" fill="#7871FF"/>
<path d="M1401.3 808.8C1401.3 818.6 1393.4 826.5 1383.6 826.5C1373.8 826.5 1365.9 818.6 1365.9 808.8C1365.9 799 1373.8 791.1 1383.6 791.1C1393.4 791.2 1401.3 799.1 1401.3 808.8Z" fill="url(#paint10_linear)"/>
<path d="M1042.3 482.7L1042 595.3L948.9 649.4L949.2 536.8L1042.3 482.7Z" fill="#7466FF"/>
<path d="M949.2 536.8L948.9 649.4L900.3 621.4L900.6 508.7L949.2 536.8Z" fill="#4B2BF4"/>
<path d="M1042.3 482.7L949.2 536.8L900.6 508.7L993.7 454.6L1042.3 482.7Z" fill="#9A88F9"/>
<path d="M1036.6 495.5L954.6 542.9V550.6L1036.6 503.3V495.5Z" fill="#A190F9"/>
<path d="M1036.6 510.9L954.6 558.2V566L1036.6 518.6V510.9Z" fill="#A190F9"/>
<path d="M954.6 581.3L1036.6 534V526.2L954.6 573.6V581.3Z" fill="#A190F9"/>
<path d="M954.6 596.7L1036.6 549.3V541.6L954.6 588.9V596.7Z" fill="#A190F9"/>
<path d="M954.6 612L1036.6 564.7V556.9L954.6 604.3V612Z" fill="#A190F9"/>
<path d="M954.6 627.4L1036.6 580V572.3L954.6 619.6V627.4Z" fill="#A190F9"/>
<path d="M943.5 494.1V496.4L972.4 513.2V510.9L943.5 494.1Z" fill="#5639F5"/>
<path d="M972.4 510.9V513.2L984.6 506.1V503.8L972.4 510.9Z" fill="#A393F9"/>
<path d="M943.5 494.1L972.4 510.9L984.6 503.8L955.7 487L943.5 494.1Z" fill="#B1A4FA"/>
<path d="M958.3 485.3V487.6L987.2 504.4V502.1L958.3 485.3Z" fill="#5639F5"/>
<path d="M987.2 502.1V504.4L999.5 497.3V495L987.2 502.1Z" fill="#A393F9"/>
<path d="M958.3 485.3L987.2 502.1L999.5 495L970.5 478.2L958.3 485.3Z" fill="#B1A4FA"/>
<path d="M1023.8 742.5L1023.6 814.9L956.5 853.9L956.7 781.5L1023.8 742.5Z" fill="#CCC3FC"/>
<path d="M956.7 781.5L956.5 853.9L813.7 771.4L813.8 699L956.7 781.5Z" fill="#333333"/>
<path d="M1023.8 742.5L956.7 781.5L813.8 699L880.9 660L1023.8 742.5Z" fill="#B8ACFB"/>
<path d="M974.4 777.6L974.5 783.9L969 787V780.7L974.4 777.6Z" fill="white"/>
<path d="M984.9 771.6V777.8L979.5 781V774.7L984.9 771.6Z" fill="#333333"/>
<path d="M1000.2 762.7V769L994.8 772.1V765.9L1000.2 762.7Z" fill="#333333"/>
<path d="M1010.7 756.7V762.9L1005.3 766.1L1005.2 759.8L1010.7 756.7Z" fill="#333333"/>
<path d="M974.5 789.6V795.9L969.1 799V792.8L974.5 789.6Z" fill="#333333"/>
<path d="M984.9 783.6L985 789.8L979.5 793V786.7L984.9 783.6Z" fill="#333333"/>
<path d="M1000.2 774.8L1000.3 781L994.8 784.1V777.9L1000.2 774.8Z" fill="#333333"/>
<path d="M1010.7 768.7V774.9L1005.3 778.1V771.9L1010.7 768.7Z" fill="white"/>
<path d="M974.5 801.6V807.9L969.1 811V804.8L974.5 801.6Z" fill="#333333"/>
<path d="M985 795.6V801.8L979.6 805V798.7L985 795.6Z" fill="#333333"/>
<path d="M1000.3 786.8V793L994.9 796.1L994.8 789.9L1000.3 786.8Z" fill="white"/>
<path d="M1010.7 780.7L1010.8 787L1005.3 790.1V783.9L1010.7 780.7Z" fill="#333333"/>
<path d="M974.5 813.6L974.6 819.9L969.1 823V816.8L974.5 813.6Z" fill="#333333"/>
<path d="M985 807.6V813.8L979.6 817V810.7L985 807.6Z" fill="#333333"/>
<path d="M1000.3 798.8V805L994.9 808.1V801.9L1000.3 798.8Z" fill="#333333"/>
<path d="M1010.8 792.7V799L1005.4 802.1L1005.3 795.9L1010.8 792.7Z" fill="#333333"/>
<path d="M974.6 825.7V831.9L969.2 835V828.8L974.6 825.7Z" fill="#333333"/>
<path d="M985 819.6L985.1 825.9L979.6 829V822.7L985 819.6Z" fill="#333333"/>
<path d="M1000.3 810.8L1000.4 817L994.9 820.2V813.9L1000.3 810.8Z" fill="#333333"/>
<path d="M1010.8 804.7V811L1005.4 814.1V807.9L1010.8 804.7Z" fill="white"/>
<path d="M909.1 783.6V789.8L914.5 793V786.7L909.1 783.6Z" fill="#415EE0"/>
<path d="M909.1 761V767.2L914.5 770.3V764.1L909.1 761Z" fill="#415EE0"/>
<path d="M882.5 760.5V766.8L887.9 769.9V763.7L882.5 760.5Z" fill="#415EE0"/>
<path d="M924.8 790.9V797.1L930.2 800.3L930.3 794L924.8 790.9Z" fill="#415EE0"/>
<path d="M882.5 783.6V789.8L887.9 793V786.7L882.5 783.6Z" fill="#415EE0"/>
<path d="M849.7 756.7V762.9L855.2 766.1V759.8L849.7 756.7Z" fill="#415EE0"/>
<path d="M882.5 658.4V664.2L822.4 699.1V693.3L882.5 658.4Z" fill="#C8BFFC"/>
<path d="M1015.1 734.9L1015 740.7L882.5 664.2V658.4L1015.1 734.9Z" fill="#333333"/>
<path d="M955 772.2L954.9 778L818.3 699.1L818.4 693.3L955 772.2Z" fill="#333333"/>
<path d="M1019.1 734.9V740.7L954.9 778L955 772.2L1019.1 734.9Z" fill="#C2B7FB"/>
<path d="M882.5 656L818.4 693.3L955 772.2L1019.1 734.9L882.5 656ZM955 769.8L822.4 693.3L882.5 658.4L1015.1 734.9L955 769.8Z" fill="#8671F7"/>
<path d="M924.3 711.2V718.2L918.5 721.5L918.6 714.6L924.3 711.2Z" fill="#C8BEFC"/>
<path d="M918.6 714.6L918.5 721.5L912.7 718.2L912.8 711.2L918.6 714.6Z" fill="#9F8FF9"/>
<path d="M924.3 711.2L918.6 714.6L912.8 711.2L918.5 707.9L924.3 711.2Z" fill="#C9BFFC"/>
<path d="M944.3 722.7L944.2 729.7L938.5 733V726L944.3 722.7Z" fill="#C8BEFC"/>
<path d="M938.5 726V733L932.7 729.7V722.7L938.5 726Z" fill="#9F8FF9"/>
<path d="M944.3 722.7L938.5 726L932.7 722.7L938.5 719.4L944.3 722.7Z" fill="#C9BFFC"/>
<path d="M965.1 734.9V741.9L959.4 745.2V738.2L965.1 734.9Z" fill="#C8BEFC"/>
<path d="M959.4 738.2V745.2L953.6 741.9V734.9L959.4 738.2Z" fill="#9F8FF9"/>
<path d="M965.1 734.9L959.4 738.2L953.6 734.9L959.3 731.5L965.1 734.9Z" fill="#C9BFFC"/>
<path d="M898.9 679.2V682.7L855.1 708.1V704.6L898.9 679.2Z" fill="#C8BEFC"/>
<path d="M855.1 704.6V708.1L836.6 697.4V693.9L855.1 704.6Z" fill="#333333"/>
<path d="M898.9 679.2L855.1 704.6L836.6 693.9L880.3 668.4L898.9 679.2Z" fill="#AD9FFA"/>
<path d="M924 693.3V696.8L880.2 722.2V718.7L924 693.3Z" fill="#C8BEFC"/>
<path d="M880.2 718.7V722.2L861.6 711.5L861.7 708L880.2 718.7Z" fill="#333333"/>
<path d="M924 693.3L880.2 718.7L861.7 708L905.4 682.5L924 693.3Z" fill="#AD9FFA"/>
<path d="M850 671.3L849.9 694.8C849.9 694.9 849.9 695 849.8 695C849.6 695.1 849.3 695.1 849.1 695C849 694.9 848.9 694.9 848.9 694.8L849 671.3C849 671.4 849.1 671.5 849.2 671.5C849.4 671.6 849.7 671.6 849.9 671.5C849.9 671.5 850 671.4 850 671.3Z" fill="#B9ADFB"/>
<path d="M875.7 685.9L875.6 709.4C875.6 709.5 875.6 709.6 875.5 709.6C875.3 709.7 875 709.7 874.8 709.6C874.7 709.5 874.6 709.5 874.6 709.4L874.7 685.9C874.7 686 874.8 686.1 874.9 686.1C875.1 686.2 875.4 686.2 875.6 686.1C875.7 686 875.7 685.9 875.7 685.9Z" fill="#B9ADFB"/>
<path d="M1168.9 896.7L1169 940.5L1268.6 998.4L1268.5 954.6L1168.9 896.7Z" fill="#F2C94C"/>
<path d="M1268.5 954.6L1268.6 998.4L1368.9 940.5L1368.8 896.7L1268.5 954.6Z" fill="#4F4F4F"/>
<path d="M1168.9 896.7L1268.5 954.6L1368.8 896.7L1269.2 838.8L1168.9 896.7Z" fill="#A08FF9"/>
<path d="M1325 942.6V965.8L1357.7 947L1357.6 923.8L1325 942.6Z" fill="#F2C94C"/>
<path d="M1284.9 965.8V989L1317.6 970.1V946.9L1284.9 965.8Z" fill="#F2C94C"/>
<path d="M1184 572.2L1184.1 898L1268.7 947.2L1268.6 621.4L1184 572.2Z" fill="#F2C94C"/>
<path d="M1268.6 621.4L1268.7 947.2L1353.8 898L1353.7 572.2L1268.6 621.4Z" fill="#4F4F4F"/>
<path d="M1184 572.2L1268.6 621.4L1353.7 572.2L1269.1 523.1L1184 572.2Z" fill="#A595F9"/>
<path d="M1328.2 601.3L1338 595.6L1338.4 899.8L1328.6 905.5L1328.2 601.3Z" fill="#B0A2FA"/>
<path d="M1308.1 612.9L1317.9 607.2L1318.3 911.4L1308.5 917.1L1308.1 612.9Z" fill="#B0A2FA"/>
<path d="M1288 624.5L1297.8 618.8L1298.2 923L1288.4 928.7L1288 624.5Z" fill="#B0A2FA"/>
<path d="M1310.4 568.4L1310.5 575.8L1326.5 585L1326.4 577.6L1310.4 568.4Z" fill="#F2C94C"/>
<path d="M1326.4 577.6L1326.5 585L1342.5 575.8V568.4L1326.4 577.6Z" fill="#7057F6"/>
<path d="M1310.4 568.4L1326.4 577.6L1342.5 568.4L1326.5 559.1L1310.4 568.4Z" fill="#A08FF9"/>
<path d="M1320.4 561.1V568.5L1326.5 572V564.6L1320.4 561.1Z" fill="#F2C94C"/>
<path d="M1326.5 564.6V572L1332.6 568.5V561.1L1326.5 564.6Z" fill="#7057F6"/>
<path d="M1320.4 561.1L1326.5 564.6L1332.6 561.1L1326.5 557.5L1320.4 561.1Z" fill="#B1A4FA"/>
<path d="M1253.8 537V544.3L1269.8 553.6V546.2L1253.8 537Z" fill="#F2C94C"/>
<path d="M1269.8 546.2V553.6L1285.9 544.4V537L1269.8 546.2Z" fill="#7057F6"/>
<path d="M1253.8 537L1269.8 546.2L1285.9 537L1269.9 527.7L1253.8 537Z" fill="#A08FF9"/>
<path d="M1263.7 529.7L1263.8 537.1L1269.8 540.6V533.2L1263.7 529.7Z" fill="#F2C94C"/>
<path d="M1269.8 533.2V540.6L1276 537.1V529.7L1269.8 533.2Z" fill="#7057F6"/>
<path d="M1263.7 529.7L1269.8 533.2L1276 529.7L1269.9 526.1L1263.7 529.7Z" fill="#B1A4FA"/>
<path d="M1210.8 575.4V580.1L1270.1 614.6V609.9L1210.8 575.4Z" fill="#4F4F4F"/>
<path d="M1270.1 609.9V614.6L1295.3 600.1V595.3L1270.1 609.9Z" fill="#4F4F4F"/>
<path d="M1210.8 575.4L1270.1 609.9L1295.3 595.3L1236 560.9L1210.8 575.4Z" fill="#B1A4FA"/>
<path d="M1321.5 551.4V556.1C1321.5 556.3 1321.6 556.4 1321.8 556.6C1322.3 556.9 1323 556.9 1323.5 556.6C1323.7 556.5 1323.8 556.3 1323.8 556.1V551.4C1323.8 551.6 1323.7 551.7 1323.5 551.9C1323 552.2 1322.3 552.2 1321.8 551.9C1321.6 551.7 1321.5 551.5 1321.5 551.4Z" fill="#333333"/>
<path d="M1321.8 550.9C1321.3 551.2 1321.3 551.6 1321.8 551.9C1322.3 552.2 1323 552.2 1323.5 551.9C1324 551.6 1324 551.2 1323.5 550.9C1323 550.6 1322.3 550.6 1321.8 550.9Z" fill="#333333"/>
<path d="M1285 530.8V535.5C1285 535.7 1285.1 535.8 1285.3 536C1285.8 536.3 1286.5 536.3 1287 536C1287.2 535.9 1287.3 535.7 1287.3 535.5V530.8C1287.3 531 1287.2 531.1 1287 531.3C1286.5 531.6 1285.8 531.6 1285.3 531.3C1285.2 531.2 1285 531 1285 530.8Z" fill="#333333"/>
<path d="M1285.4 530.3C1284.9 530.6 1284.9 531 1285.4 531.3C1285.9 531.6 1286.6 531.6 1287.1 531.3C1287.6 531 1287.6 530.6 1287.1 530.3C1286.6 530.1 1285.8 530.1 1285.4 530.3Z" fill="#333333"/>
<path d="M1332.6 558.8L1335.3 557.2L1335.4 542L1332.7 543.5L1332.6 558.8Z" fill="#333333"/>
<path d="M1332.7 543.5L1335.4 542L1281.3 510.8L1278.6 512.3L1332.7 543.5Z" fill="#B0A3FA"/>
<path d="M1278.6 512.3V527.6L1332.6 558.8L1332.7 543.5L1278.6 512.3Z" fill="#F2C94C"/>
<path d="M1044.9 920.9L1027.4 931.1C1026.6 931.6 1026.1 932.5 1026.1 933.9L1043.6 923.7C1043.6 922.3 1044.1 921.3 1044.9 920.9Z" fill="#2E0069"/>
<path d="M1026.1 933.9L1043.6 923.7C1043.6 922.3 1044.1 921.3 1044.9 920.9L1027.4 931.1C1026.6 931.5 1026.1 932.5 1026.1 933.9Z" fill="#2E0069"/>
<path d="M1054.4 950.2L1071.9 940L1072 914.7L1054.4 924.8V950.2Z" fill="#9D8CF9"/>
<path d="M1054.4 924.8L1072 914.7L1038.9 895.6L1021.4 905.8L1054.4 924.8Z" fill="#BEB3FB"/>
<path d="M1030.1 930.1C1030.8 929.7 1031.8 929.7 1032.9 930.4C1035.1 931.6 1036.8 934.7 1036.8 937.2C1036.8 938.4 1036.4 939.3 1035.7 939.7L1033.1 941.2C1033.8 940.8 1034.2 939.9 1034.2 938.7C1034.2 936.2 1032.5 933.2 1030.3 931.9C1029.2 931.3 1028.2 931.2 1027.5 931.6L1030.1 930.1Z" fill="#2E0069"/>
<path d="M1030.4 931.8C1028.2 930.6 1026.5 931.6 1026.5 934C1026.5 936.5 1028.2 939.5 1030.4 940.8C1032.6 942 1034.3 941 1034.3 938.6C1034.3 936.1 1032.5 933.1 1030.4 931.8Z" fill="#654BF6"/>
<path d="M1030.3 933.7C1029 933 1028 933.6 1028 935C1028 936.5 1029 938.3 1030.3 939C1031.6 939.7 1032.6 939.1 1032.6 937.7C1032.7 936.2 1031.6 934.4 1030.3 933.7Z" fill="#4B2BF4"/>
<path d="M1021.4 905.8L1021.3 931.1L1026.1 933.9C1026.1 931.1 1028.1 930 1030.5 931.4C1032.9 932.8 1034.9 936.2 1034.9 939.1L1054.3 950.3L1054.4 925L1021.4 905.8Z" fill="#A696F9"/>
<path d="M1079.7 943.4L1065.1 951.9C1064.3 952.4 1063.8 953.3 1063.8 954.7L1078.4 946.2C1078.4 944.8 1078.9 943.8 1079.7 943.4Z" fill="#2E0069"/>
<path d="M1067.9 951.1C1068.6 950.7 1069.6 950.7 1070.7 951.4C1072.9 952.6 1074.6 955.7 1074.6 958.2C1074.6 959.4 1074.2 960.3 1073.5 960.7L1070.9 962.2C1071.6 961.8 1072 960.9 1072 959.7C1072 957.2 1070.3 954.2 1068.1 952.9C1067 952.3 1066 952.2 1065.3 952.6L1067.9 951.1Z" fill="#2E0069"/>
<path d="M1069.4 947.2L1084 938.7L1079.8 929.1L1065.2 937.5L1069.4 947.2Z" fill="#4B2BF4"/>
<path d="M1065.2 937.5L1079.8 929.1L1070.9 923.2L1056.3 931.7L1065.2 937.5Z" fill="#BEB3FB"/>
<path d="M1084 938.7L1087.2 941.4C1088.4 942.4 1089.2 944.1 1089.2 945.5L1074.6 954C1074.6 952.6 1073.8 950.9 1072.6 949.9L1069.4 947.2L1084 938.7Z" fill="#BEB3FB"/>
<path d="M1068.1 952.8C1065.9 951.6 1064.2 952.6 1064.2 955C1064.2 957.5 1065.9 960.5 1068.1 961.8C1070.3 963 1072 962 1072 959.6C1072.1 957.1 1070.3 954.1 1068.1 952.8Z" fill="#654BF6"/>
<path d="M1068.1 954.6C1066.8 953.9 1065.8 954.5 1065.8 955.9C1065.8 957.4 1066.8 959.2 1068.1 959.9C1069.4 960.6 1070.4 960 1070.4 958.6C1070.5 957.2 1069.4 955.4 1068.1 954.6Z" fill="#4B2BF4"/>
<path d="M1074.6 961L1089.2 952.5L1089.3 945.4L1074.7 953.9L1074.6 961Z" fill="#9D8CF9"/>
<path d="M1086.9 949.3C1086.2 949.7 1085.7 950.6 1085.7 951.4C1085.7 952.2 1086.2 952.5 1086.9 952.1C1087.6 951.7 1088.1 950.8 1088.1 950C1088.1 949.2 1087.6 948.9 1086.9 949.3Z" fill="#BBB0FB"/>
<path d="M1078 954.4C1077.3 954.8 1076.8 955.7 1076.8 956.5C1076.8 957.3 1077.3 957.6 1078 957.2C1078.7 956.8 1079.2 955.9 1079.2 955.1C1079.2 954.3 1078.7 954 1078 954.4Z" fill="#BBB0FB"/>
<path d="M1056.3 931.7V938.9V950.3L1063.9 954.7C1063.9 951.9 1065.9 950.8 1068.3 952.2C1070.7 953.6 1072.7 957 1072.7 959.9L1074.7 961V954C1074.7 952.6 1073.9 950.9 1072.7 949.9L1069.5 947.2L1065.3 937.6L1056.3 931.7Z" fill="#9D8CF9"/>
<path d="M1064.2 938.3L1067.3 945.5C1067.5 946 1067 946.5 1066.5 946.2L1057.1 940.6C1057 940.6 1057 940.5 1057 940.4V933.8C1057 933.7 1057.2 933.6 1057.3 933.7L1064.2 938.3C1064.2 938.2 1064.2 938.2 1064.2 938.3Z" fill="#4B2BF4"/>
<path d="M1444 958.2L1461.5 968.4C1462.3 968.9 1462.8 969.8 1462.8 971.2L1445.3 961C1445.3 959.6 1444.8 958.7 1444 958.2Z" fill="#2E0069"/>
<path d="M1462.8 971.2L1445.3 961C1445.3 959.6 1444.8 958.6 1444 958.2L1461.5 968.4C1462.3 968.8 1462.8 969.8 1462.8 971.2Z" fill="#2E0069"/>
<path d="M1434.6 987.5L1417.1 977.3L1417 952L1434.5 962.2L1434.6 987.5Z" fill="#9D8CF9"/>
<path d="M1434.5 962.2L1417 952L1450.1 932.9L1467.6 943.1L1434.5 962.2Z" fill="#BEB3FB"/>
<path d="M1458.8 967.4C1458.1 967 1457.1 967 1456 967.7C1453.8 968.9 1452.1 972 1452.1 974.5C1452.1 975.7 1452.5 976.6 1453.2 977L1455.8 978.5C1455.1 978.1 1454.7 977.2 1454.7 976C1454.7 973.5 1456.4 970.5 1458.6 969.2C1459.7 968.6 1460.7 968.5 1461.4 968.9L1458.8 967.4Z" fill="#2E0069"/>
<path d="M1458.6 969.2C1460.8 968 1462.5 969 1462.5 971.4C1462.5 973.9 1460.8 976.9 1458.6 978.2C1456.4 979.4 1454.7 978.4 1454.7 976C1454.7 973.5 1456.4 970.4 1458.6 969.2Z" fill="#542488"/>
<path d="M1458.6 971C1459.9 970.3 1460.9 970.9 1460.9 972.3C1460.9 973.7 1459.9 975.6 1458.6 976.3C1457.3 977 1456.3 976.4 1456.3 975C1456.3 973.5 1457.3 971.7 1458.6 971Z" fill="#2E0069"/>
<path d="M1467.6 943.1L1467.7 968.4L1462.9 971.2C1462.9 968.4 1460.9 967.3 1458.5 968.7C1456.1 970.1 1454.1 973.5 1454.1 976.4L1434.7 987.6L1434.6 962.3L1467.6 943.1Z" fill="#A696F9"/>
<path d="M1409.2 980.7L1423.8 989.2C1424.6 989.7 1425.1 990.6 1425.1 992L1410.5 983.5C1410.5 982.2 1410 981.2 1409.2 980.7Z" fill="#2E0069"/>
<path d="M1421 988.4C1420.3 988 1419.3 988 1418.2 988.7C1416 989.9 1414.3 993 1414.3 995.5C1414.3 996.7 1414.7 997.6 1415.4 998L1418 999.5C1417.3 999.1 1416.9 998.2 1416.9 997C1416.9 994.5 1418.6 991.5 1420.8 990.2C1421.9 989.6 1422.9 989.5 1423.6 989.9L1421 988.4Z" fill="#2E0069"/>
<path d="M1419.5 984.5L1404.9 976L1409.2 966.4L1423.8 974.9L1419.5 984.5Z" fill="#4B2BF4"/>
<path d="M1423.8 974.9L1409.2 966.4L1418.1 960.6L1432.7 969.1L1423.8 974.9Z" fill="#BEB3FB"/>
<path d="M1404.9 976L1401.7 978.7C1400.5 979.7 1399.7 981.4 1399.7 982.8L1414.3 991.3C1414.3 989.9 1415.1 988.2 1416.3 987.2L1419.5 984.5L1404.9 976Z" fill="#BEB3FB"/>
<path d="M1420.8 990.2C1423 989 1424.7 990 1424.7 992.4C1424.7 994.9 1423 997.9 1420.8 999.2C1418.6 1000.4 1416.9 999.4 1416.9 997C1416.9 994.4 1418.7 991.4 1420.8 990.2Z" fill="#654BF6"/>
<path d="M1420.8 992C1422.1 991.3 1423.1 991.9 1423.1 993.3C1423.1 994.8 1422.1 996.6 1420.8 997.3C1419.5 998 1418.5 997.4 1418.5 996C1418.5 994.5 1419.5 992.7 1420.8 992Z" fill="#4B2BF4"/>
<path d="M1414.3 998.3L1399.7 989.8V982.8L1414.3 991.3V998.3Z" fill="#9D8CF9"/>
<path d="M1402 986.6C1402.7 987 1403.2 987.9 1403.2 988.7C1403.2 989.5 1402.7 989.8 1402 989.4C1401.3 989 1400.8 988.1 1400.8 987.3C1400.8 986.5 1401.4 986.2 1402 986.6Z" fill="#BEB3FB"/>
<path d="M1411 991.8C1411.7 992.2 1412.2 993.1 1412.2 993.9C1412.2 994.7 1411.7 995 1411 994.6C1410.3 994.2 1409.8 993.3 1409.8 992.5C1409.7 991.7 1410.3 991.4 1411 991.8Z" fill="#BEB3FB"/>
<path d="M1432.7 969.1V976.3V987.7L1425.1 992.1C1425.1 989.3 1423.1 988.2 1420.7 989.6C1418.3 991 1416.3 994.4 1416.3 997.3L1414.3 998.4V991.4C1414.3 990 1415.1 988.3 1416.3 987.3L1419.5 984.6L1423.7 975L1432.7 969.1Z" fill="#A696F9"/>
<path d="M1424.7 975.6L1421.6 982.8C1421.4 983.3 1421.9 983.8 1422.4 983.5L1431.8 977.9C1431.9 977.9 1431.9 977.8 1431.9 977.7V971.1C1431.9 971 1431.7 970.9 1431.6 971L1424.7 975.6C1424.8 975.6 1424.8 975.6 1424.7 975.6Z" fill="#4B2BF4"/>
<path d="M1474.3 975.8L1491.8 986C1492.6 986.5 1493.1 987.4 1493.1 988.8L1475.6 978.6C1475.6 977.3 1475.1 976.3 1474.3 975.8Z" fill="#2E0069"/>
<path d="M1493.1 988.9L1475.6 978.7C1475.6 977.3 1475.1 976.3 1474.3 975.9L1491.8 986.1C1492.6 986.5 1493.1 987.5 1493.1 988.9Z" fill="#2E0069"/>
<path d="M1464.9 1005.2L1447.4 995L1447.3 969.6L1464.8 979.8L1464.9 1005.2Z" fill="#9D8CF9"/>
<path d="M1464.8 979.8L1447.3 969.6L1480.3 950.6L1497.9 960.7L1464.8 979.8Z" fill="#BEB3FB"/>
<path d="M1489.1 985C1488.4 984.6 1487.4 984.6 1486.3 985.3C1484.1 986.5 1482.4 989.6 1482.4 992.1C1482.4 993.3 1482.8 994.2 1483.5 994.6L1486.1 996.1C1485.4 995.7 1485 994.8 1485 993.6C1485 991.1 1486.7 988.1 1488.9 986.8C1490 986.2 1491 986.1 1491.7 986.5L1489.1 985Z" fill="#2E0069"/>
<path d="M1488.9 986.8C1491.1 985.6 1492.8 986.6 1492.8 989C1492.8 991.5 1491.1 994.5 1488.9 995.8C1486.7 997 1485 996 1485 993.6C1485 991.1 1486.7 988.1 1488.9 986.8Z" fill="#654BF6"/>
<path d="M1488.9 988.6C1490.2 987.9 1491.2 988.5 1491.2 989.9C1491.2 991.4 1490.2 993.2 1488.9 993.9C1487.6 994.6 1486.6 994 1486.6 992.6C1486.6 991.2 1487.6 989.4 1488.9 988.6Z" fill="#4B2BF4"/>
<path d="M1497.9 960.7L1498 986L1493.2 988.8C1493.2 986 1491.2 984.9 1488.8 986.3C1486.4 987.7 1484.4 991.1 1484.4 994L1465 1005.2L1464.9 979.9L1497.9 960.7Z" fill="#A696F9"/>
<path d="M1439.5 998.4L1454.1 1006.9C1454.9 1007.4 1455.4 1008.3 1455.4 1009.7L1440.8 1001.2C1440.8 999.8 1440.3 998.8 1439.5 998.4Z" fill="#2E0069"/>
<path d="M1451.3 1006C1450.6 1005.6 1449.6 1005.6 1448.5 1006.3C1446.3 1007.5 1444.6 1010.6 1444.6 1013.1C1444.6 1014.3 1445 1015.2 1445.7 1015.6L1448.3 1017.1C1447.6 1016.7 1447.2 1015.8 1447.2 1014.6C1447.2 1012.1 1448.9 1009.1 1451.1 1007.8C1452.2 1007.2 1453.2 1007.1 1453.9 1007.5L1451.3 1006Z" fill="#2E0069"/>
<path d="M1449.8 1002.1L1435.2 993.7L1439.5 984L1454.1 992.5L1449.8 1002.1Z" fill="#4B2BF4"/>
<path d="M1454.1 992.5L1439.5 984L1448.4 978.2L1463 986.7L1454.1 992.5Z" fill="#BEB3FB"/>
<path d="M1435.2 993.7L1432 996.4C1430.8 997.4 1430 999.1 1430 1000.5L1444.6 1009C1444.6 1007.6 1445.4 1005.9 1446.6 1004.9L1449.8 1002.2L1435.2 993.7Z" fill="#BEB3FB"/>
<path d="M1451.1 1007.8C1453.3 1006.6 1455 1007.6 1455 1010C1455 1012.5 1453.3 1015.5 1451.1 1016.8C1448.9 1018 1447.2 1017 1447.2 1014.6C1447.2 1012.1 1448.9 1009.1 1451.1 1007.8Z" fill="#654BF6"/>
<path d="M1451.1 1009.6C1452.4 1008.9 1453.4 1009.5 1453.4 1010.9C1453.4 1012.4 1452.4 1014.2 1451.1 1014.9C1449.8 1015.6 1448.8 1015 1448.8 1013.6C1448.8 1012.2 1449.8 1010.4 1451.1 1009.6Z" fill="#4B2BF4"/>
<path d="M1444.6 1015.9L1430 1007.5V1000.4L1444.6 1008.9V1015.9Z" fill="#9D8CF9"/>
<path d="M1432.3 1004.3C1433 1004.7 1433.5 1005.6 1433.5 1006.4C1433.5 1007.2 1433 1007.5 1432.3 1007.1C1431.6 1006.7 1431.1 1005.8 1431.1 1005C1431.1 1004.2 1431.6 1003.9 1432.3 1004.3Z" fill="#BEB3FB"/>
<path d="M1441.2 1009.4C1441.9 1009.8 1442.4 1010.7 1442.4 1011.5C1442.4 1012.3 1441.9 1012.6 1441.2 1012.2C1440.5 1011.8 1440 1010.9 1440 1010.1C1440 1009.3 1440.6 1009 1441.2 1009.4Z" fill="#BEB3FB"/>
<path d="M1463 986.7V993.9V1005.3L1455.4 1009.7C1455.4 1006.9 1453.4 1005.8 1451 1007.2C1448.6 1008.6 1446.6 1012 1446.6 1014.9L1444.6 1016V1009C1444.6 1007.6 1445.4 1005.9 1446.6 1004.9L1449.8 1002.2L1454 992.6L1463 986.7Z" fill="#A696F9"/>
<path d="M1455 993.3L1451.9 1000.5C1451.7 1001 1452.2 1001.5 1452.7 1001.2L1462.1 995.6C1462.2 995.6 1462.2 995.5 1462.2 995.4V988.8C1462.2 988.7 1462 988.6 1461.9 988.7L1455 993.3C1455.1 993.2 1455 993.2 1455 993.3Z" fill="#4B2BF4"/>
<path d="M970.8 432.2L973.7 427.3H970.8H961.1V409.4L946.4 433.7L943.4 438.6H946.4H956V456.5L970.8 432.2Z" fill="white"/>
<path d="M944.9 674.8C944.9 677.3 942.9 679.4 940.3 679.4C937.8 679.4 935.7 677.4 935.7 674.8C935.7 672.3 937.7 670.2 940.3 670.2C942.9 670.3 944.9 672.3 944.9 674.8Z" fill="white"/>
<path d="M940.4 650.3C946.4 650.3 951.9 652.5 956.1 656C957 656.7 958.3 656.7 959.1 655.9C960 655 960 653.4 958.9 652.6C953.9 648.4 947.4 645.9 940.4 645.9C933.4 645.9 927 648.4 922 652.5C921 653.3 920.9 654.9 921.8 655.8C922.6 656.6 923.9 656.7 924.8 656C929 652.5 934.5 650.3 940.4 650.3Z" fill="white"/>
<path d="M927.3 661.3C928.1 662.1 929.3 662.2 930.2 661.5C933 659.4 936.5 658.1 940.3 658.1C944.2 658.1 947.7 659.4 950.6 661.6C951.5 662.3 952.7 662.2 953.5 661.4C954.4 660.5 954.4 658.9 953.3 658.1C949.7 655.3 945.2 653.6 940.3 653.6C935.5 653.6 931 655.2 927.5 658C926.5 658.8 926.4 660.4 927.3 661.3Z" fill="white"/>
<path d="M933 667C933.8 667.8 934.9 667.8 935.8 667.3C937.1 666.5 938.7 666 940.3 666C942 666 943.6 666.5 945 667.4C945.9 668 947.1 667.9 947.8 667.2C948.8 666.2 948.6 664.5 947.4 663.8C945.3 662.5 942.9 661.7 940.2 661.7C937.6 661.7 935.3 662.4 933.2 663.7C932.2 664.3 932 666 933 667Z" fill="white"/>
<path d="M1288.3 490.4C1286.8 492.9 1284.7 495 1282 496.6C1279.3 498.2 1276.1 499.2 1272.4 499.5V506.1H1267.7V499.5C1262.1 499.1 1257.7 497.5 1254.3 494.6C1250.9 491.7 1249.3 487.8 1249.3 482.9H1261.6C1261.9 487 1264 489.5 1267.7 490.2V474.6C1263.5 473.5 1260.3 472.5 1258 471.6C1255.7 470.7 1253.7 469.2 1251.9 467C1250.1 464.8 1249.2 461.9 1249.2 458.2C1249.2 455 1250 452.2 1251.6 449.7C1253.2 447.2 1255.4 445.2 1258.2 443.8C1261 442.3 1264.2 441.5 1267.6 441.2V434.6H1272.3V441.2C1277.6 441.5 1281.8 443 1284.9 445.7C1288 448.4 1289.7 452.3 1290 457.4H1278C1277.8 455.8 1277.3 454.3 1276.2 453.1C1275.2 451.9 1273.9 451.1 1272.2 450.6V466.1C1276.2 467.1 1279.4 468.1 1281.7 469C1284 469.9 1286 471.4 1287.7 473.5C1289.4 475.6 1290.3 478.6 1290.3 482.3C1290.5 485.2 1289.8 487.9 1288.3 490.4ZM1262.9 462C1264 463.1 1265.6 464.1 1267.7 464.8V450.6C1265.7 450.9 1264.2 451.7 1263 452.8C1261.8 453.9 1261.2 455.5 1261.2 457.5C1261.3 459.3 1261.8 460.8 1262.9 462ZM1277 487.7C1278.1 486.4 1278.6 484.9 1278.6 483.1C1278.6 481.3 1278.1 479.9 1277 478.8C1275.9 477.7 1274.4 476.8 1272.4 476V490.2C1274.4 489.8 1276 489 1277 487.7Z" fill="white"/>
<g opacity="0.05">
<g opacity="0.05">
<path opacity="0.05" d="M666.4 672.2H334.1V763.7H653.5L666.4 672.2Z" fill="url(#paint11_linear)"/>
<g opacity="0.05">
<path opacity="0.05" d="M334.1 496.7V763.7L425.7 710.8V443.8L334.1 496.7Z" fill="#E1E6F0"/>
<path opacity="0.05" d="M334.1 496.7V763.7L242.5 710.8V443.8L334.1 496.7Z" fill="url(#paint12_linear)"/>
<path opacity="0.05" d="M242.5 443.8L334.1 496.7L425.7 443.8L334.1 391L242.5 443.8Z" fill="url(#paint13_linear)"/>
</g>
<g opacity="0.05">
<path opacity="0.05" d="M95.4 524.5V710L153.7 676.3V490.9L95.4 524.5Z" fill="#E1E6F0"/>
<path opacity="0.05" d="M95.4 524.5V710L37.1 676.3V490.9L95.4 524.5Z" fill="url(#paint14_linear)"/>
<path opacity="0.05" d="M37.1 490.9L95.4 524.5L153.7 490.9L95.4 457.2L37.1 490.9Z" fill="url(#paint15_linear)"/>
</g>
<g opacity="0.05">
<path opacity="0.05" d="M419.5 796.2H78.3V915.2H419.5V796.2Z" fill="url(#paint16_linear)"/>
<path opacity="0.05" d="M78.3 690.7V915.2L169.9 862.3V637.8L78.3 690.7Z" fill="url(#paint17_linear)"/>
<path opacity="0.05" d="M-13.3 637.8L78.3 690.7L169.9 637.8L78.3 690.7L-13.3 637.8Z" fill="white"/>
<path opacity="0.05" d="M78.3 690.7V915.2L-13.3 862.3V637.8L78.3 690.7Z" fill="url(#paint18_linear)"/>
<path opacity="0.05" d="M-13.3 637.8L78.3 690.7L169.9 637.8L78.3 584.9L-13.3 637.8Z" fill="url(#paint19_linear)"/>
</g>
</g>
<g opacity="0.05">
<path opacity="0.05" d="M667.3 488.3H515.8V569.1H667.3V488.3Z" fill="url(#paint20_linear)"/>
<g opacity="0.05">
<g opacity="0.05">
<path opacity="0.05" d="M515.8 554.2V569.1L574.2 535.4V520.5L515.8 554.2Z" fill="url(#paint21_linear)"/>
<path opacity="0.05" d="M457.3 520.5L515.8 554.2L574.2 520.5L515.8 554.2L457.3 520.5Z" fill="white"/>
<path opacity="0.05" d="M515.8 554.2V569.1L457.3 535.4V520.5L515.8 554.2Z" fill="url(#paint22_linear)"/>
<path opacity="0.05" d="M457.3 520.5L515.8 554.2L574.2 520.5L515.8 486.7L457.3 520.5Z" fill="url(#paint23_linear)"/>
</g>
<g opacity="0.05">
<path opacity="0.05" d="M515.8 535.4V550.3L574.2 516.6V501.7L515.8 535.4Z" fill="url(#paint24_linear)"/>
<path opacity="0.05" d="M457.3 501.7L515.8 535.4L574.2 501.7L515.8 535.4L457.3 501.7Z" fill="white"/>
<path opacity="0.05" d="M515.8 535.4V550.3L457.3 516.6V501.7L515.8 535.4Z" fill="url(#paint25_linear)"/>
<path opacity="0.05" d="M457.3 501.7L515.8 535.4L574.2 501.7L515.8 467.9L457.3 501.7Z" fill="url(#paint26_linear)"/>
</g>
<g opacity="0.05">
<path opacity="0.05" d="M515.8 516.6V531.5L574.2 497.7V482.8L515.8 516.6Z" fill="url(#paint27_linear)"/>
<path opacity="0.05" d="M457.3 482.8L515.8 516.6L574.2 482.8L515.8 516.6L457.3 482.8Z" fill="white"/>
<path opacity="0.05" d="M515.8 516.6V531.5L457.3 497.7V482.8L515.8 516.6Z" fill="url(#paint28_linear)"/>
<path opacity="0.05" d="M544 500.2L574.2 482.8L515.8 449.1L457.3 482.8L515.8 516.6L544 500.2Z" fill="url(#paint29_linear)"/>
</g>
<g opacity="0.05">
<path opacity="0.05" d="M515.8 497.7V512.6L574.2 478.9V464L515.8 497.7Z" fill="url(#paint30_linear)"/>
<path opacity="0.05" d="M457.3 464L515.8 497.7L574.2 464L515.8 497.7L457.3 464Z" fill="white"/>
<path opacity="0.05" d="M515.8 497.7V512.6L457.3 478.9V464L515.8 497.7Z" fill="url(#paint31_linear)"/>
<path opacity="0.05" d="M457.3 464L515.8 497.7L574.2 464L515.8 430.3L457.3 464Z" fill="url(#paint32_linear)"/>
</g>
</g>
</g>
<g opacity="0.05">
<path opacity="0.05" d="M631 643V1068.1L729.5 1011.3V586.1L631 643Z" fill="url(#paint33_linear)"/>
<path opacity="0.05" d="M532.5 586.1L631 643L729.5 586.1L631 643L532.5 586.1Z" fill="white"/>
<path opacity="0.05" d="M631 643V1068.1L532.5 1011.3V586.1L631 643Z" fill="url(#paint34_linear)"/>
<path opacity="0.05" d="M532.5 586.1L631 643L729.5 586.1L631 529.3L532.5 586.1Z" fill="url(#paint35_linear)"/>
</g>
</g>
<path opacity="0.1" fill-rule="evenodd" clip-rule="evenodd" d="M1655.8 178.3C1664.9 212.4 1644.7 247.5 1610.5 256.7C1576.4 265.8 1541.3 245.6 1532.1 211.4C1523 177.3 1543.2 142.2 1577.4 133C1611.6 123.9 1646.7 144.2 1655.8 178.3Z" fill="#FCFAFA"/>
<path opacity="0.1" fill-rule="evenodd" clip-rule="evenodd" d="M1495 838.5C1517.4 838.5 1535.5 856.6 1535.5 879C1535.5 901.4 1517.4 919.5 1495 919.5C1472.6 919.5 1454.5 901.4 1454.5 879C1454.5 856.6 1472.6 838.5 1495 838.5Z" fill="#FCFAFA"/>
<path opacity="0.1" fill-rule="evenodd" clip-rule="evenodd" d="M857 805.5C879.4 805.5 897.5 823.6 897.5 846C897.5 868.4 879.4 886.5 857 886.5C834.6 886.5 816.5 868.4 816.5 846C816.5 823.6 834.6 805.5 857 805.5Z" fill="#FCFAFA"/>
<path opacity="0.1" fill-rule="evenodd" clip-rule="evenodd" d="M1600 225.5C1622.4 225.5 1640.5 243.6 1640.5 266C1640.5 288.4 1622.4 306.5 1600 306.5C1577.6 306.5 1559.5 288.4 1559.5 266C1559.5 243.6 1577.6 225.5 1600 225.5Z" fill="#FCFAFA"/>
<path opacity="0.1" fill-rule="evenodd" clip-rule="evenodd" d="M897 232.7C904.4 232.7 910.3 238.7 910.3 246C910.3 253.4 904.3 259.3 897 259.3C889.6 259.3 883.7 253.3 883.7 246C883.7 238.6 889.6 232.7 897 232.7Z" fill="#FCFAFA"/>
<path opacity="0.1" fill-rule="evenodd" clip-rule="evenodd" d="M722.7 -45.9C748.2 -45.9 768.9 -25.2 768.9 0.299976C768.9 25.8 748.2 46.5 722.7 46.5C697.2 46.5 676.5 25.8 676.5 0.299976C676.5 -25.2 697.2 -45.9 722.7 -45.9Z" fill="#FCFAFA"/>
</g>
<defs>
<linearGradient id="paint0_linear" x1="241.71" y1="2.18251" x2="1429.23" y2="1431.02" gradientUnits="userSpaceOnUse">
<stop offset="0.0421583" stop-color="#F8BA00"/>
<stop offset="1" stop-color="#D00000" stop-opacity="0.78"/>
</linearGradient>
<linearGradient id="paint1_linear" x1="1339" y1="1010.58" x2="983.973" y2="211.769" gradientUnits="userSpaceOnUse">
<stop stop-color="#542488"/>
<stop offset="1" stop-color="#151B4E"/>
</linearGradient>
<linearGradient id="paint2_linear" x1="1054.27" y1="749.841" x2="1054.27" y2="780.826" gradientUnits="userSpaceOnUse">
<stop stop-color="#A99AFA"/>
<stop offset="0.4583" stop-color="#9A89F9"/>
<stop offset="1" stop-color="#8C78F8"/>
</linearGradient>
<linearGradient id="paint3_linear" x1="812.769" y1="646.024" x2="812.769" y2="681.417" gradientUnits="userSpaceOnUse">
<stop stop-color="#A99AFA"/>
<stop offset="0.4583" stop-color="#9A89F9"/>
<stop offset="1" stop-color="#8C78F8"/>
</linearGradient>
<linearGradient id="paint4_linear" x1="857.317" y1="620.189" x2="857.317" y2="655.581" gradientUnits="userSpaceOnUse">
<stop stop-color="#A99AFA"/>
<stop offset="0.4583" stop-color="#9A89F9"/>
<stop offset="1" stop-color="#8C78F8"/>
</linearGradient>
<linearGradient id="paint5_linear" x1="1404.95" y1="406.679" x2="1432.27" y2="406.679" gradientUnits="userSpaceOnUse">
<stop stop-color="#A99AFA"/>
<stop offset="0.4583" stop-color="#9A89F9"/>
<stop offset="1" stop-color="#8C78F8"/>
</linearGradient>
<linearGradient id="paint6_linear" x1="1091.17" y1="815.702" x2="1091.17" y2="851.095" gradientUnits="userSpaceOnUse">
<stop stop-color="#A99AFA"/>
<stop offset="0.4583" stop-color="#9A89F9"/>
<stop offset="1" stop-color="#8C78F8"/>
</linearGradient>
<linearGradient id="paint7_linear" x1="1133.91" y1="791.088" x2="1133.91" y2="826.481" gradientUnits="userSpaceOnUse">
<stop stop-color="#A99AFA"/>
<stop offset="0.4583" stop-color="#9A89F9"/>
<stop offset="1" stop-color="#8C78F8"/>
</linearGradient>
<linearGradient id="paint8_linear" x1="1537.82" y1="921.297" x2="1537.82" y2="952.281" gradientUnits="userSpaceOnUse">
<stop stop-color="#A99AFA"/>
<stop offset="0.4583" stop-color="#9A89F9"/>
<stop offset="1" stop-color="#8C78F8"/>
</linearGradient>
<linearGradient id="paint9_linear" x1="1449.1" y1="823.254" x2="1449.1" y2="854.238" gradientUnits="userSpaceOnUse">
<stop stop-color="#A99AFA"/>
<stop offset="0.4583" stop-color="#9A89F9"/>
<stop offset="1" stop-color="#8C78F8"/>
</linearGradient>
<linearGradient id="paint10_linear" x1="1383.6" y1="793.025" x2="1383.6" y2="824.01" gradientUnits="userSpaceOnUse">
<stop stop-color="#A99AFA"/>
<stop offset="0.4583" stop-color="#9A89F9"/>
<stop offset="1" stop-color="#8C78F8"/>
</linearGradient>
<linearGradient id="paint11_linear" x1="170.904" y1="717.975" x2="634.279" y2="717.975" gradientUnits="userSpaceOnUse">
<stop offset="2.51e-06" stop-color="#788ACB"/>
<stop offset="1" stop-color="white"/>
</linearGradient>
<linearGradient id="paint12_linear" x1="318.846" y1="474.147" x2="267.131" y2="693.456" gradientUnits="userSpaceOnUse">
<stop offset="6.3e-07" stop-color="white"/>
<stop offset="1" stop-color="#E1E6F0"/>
</linearGradient>
<linearGradient id="paint13_linear" x1="338.446" y1="350.97" x2="332.044" y2="486.998" gradientUnits="userSpaceOnUse">
<stop offset="6.3e-07" stop-color="white"/>
<stop offset="1" stop-color="#E1E6F0"/>
</linearGradient>
<linearGradient id="paint14_linear" x1="87.3253" y1="511.171" x2="51.7205" y2="662.161" gradientUnits="userSpaceOnUse">
<stop offset="6.3e-07" stop-color="white"/>
<stop offset="1" stop-color="#E1E6F0"/>
</linearGradient>
<linearGradient id="paint15_linear" x1="98.1871" y1="431.806" x2="94.1158" y2="518.321" gradientUnits="userSpaceOnUse">
<stop offset="6.3e-07" stop-color="white"/>
<stop offset="1" stop-color="#E1E6F0"/>
</linearGradient>
<linearGradient id="paint16_linear" x1="-66.0455" y1="855.704" x2="334.693" y2="855.704" gradientUnits="userSpaceOnUse">
<stop offset="2.3e-06" stop-color="#788ACB"/>
<stop offset="1" stop-color="white"/>
</linearGradient>
<linearGradient id="paint17_linear" x1="28.3088" y1="492.646" x2="175.926" y2="930.273" gradientUnits="userSpaceOnUse">
<stop offset="8.4e-07" stop-color="#788ACB"/>
<stop offset="1" stop-color="#DEE8FF"/>
</linearGradient>
<linearGradient id="paint18_linear" x1="58.6682" y1="665.313" x2="14.3198" y2="853.383" gradientUnits="userSpaceOnUse">
<stop offset="6.3e-07" stop-color="white"/>
<stop offset="1" stop-color="#E1E6F0"/>
</linearGradient>
<linearGradient id="paint19_linear" x1="82.623" y1="544.914" x2="76.2216" y2="680.942" gradientUnits="userSpaceOnUse">
<stop offset="6.3e-07" stop-color="white"/>
<stop offset="1" stop-color="#E1E6F0"/>
</linearGradient>
<linearGradient id="paint20_linear" x1="489.635" y1="528.717" x2="662.076" y2="528.717" gradientUnits="userSpaceOnUse">
<stop offset="2.3e-06" stop-color="#788ACB"/>
<stop offset="0.2139" stop-color="#A2AEDB"/>
<stop offset="0.4536" stop-color="#CAD1EB"/>
<stop offset="0.6727" stop-color="#E7EAF6"/>
<stop offset="0.8621" stop-color="#F9FAFD"/>
<stop offset="1" stop-color="white"/>
</linearGradient>
<linearGradient id="paint21_linear" x1="497.916" y1="517.877" x2="570.181" y2="559.22" gradientUnits="userSpaceOnUse">
<stop offset="8.4e-07" stop-color="#788ACB"/>
<stop offset="1" stop-color="#DEE8FF"/>
</linearGradient>
<linearGradient id="paint22_linear" x1="490.112" y1="529.648" x2="484.069" y2="555.277" gradientUnits="userSpaceOnUse">
<stop offset="6.3e-07" stop-color="white"/>
<stop offset="1" stop-color="#E1E6F0"/>
</linearGradient>
<linearGradient id="paint23_linear" x1="528.734" y1="520.48" x2="461.734" y2="520.48" gradientUnits="userSpaceOnUse">
<stop offset="8.4e-07" stop-color="#788ACB"/>
<stop offset="1" stop-color="#DEE8FF"/>
</linearGradient>
<linearGradient id="paint24_linear" x1="506.03" y1="503.693" x2="578.296" y2="545.035" gradientUnits="userSpaceOnUse">
<stop offset="8.4e-07" stop-color="#788ACB"/>
<stop offset="1" stop-color="#DEE8FF"/>
</linearGradient>
<linearGradient id="paint25_linear" x1="490.112" y1="510.822" x2="484.069" y2="536.451" gradientUnits="userSpaceOnUse">
<stop offset="6.3e-07" stop-color="white"/>
<stop offset="1" stop-color="#E1E6F0"/>
</linearGradient>
<linearGradient id="paint26_linear" x1="528.734" y1="501.653" x2="461.734" y2="501.653" gradientUnits="userSpaceOnUse">
<stop offset="8.4e-07" stop-color="#788ACB"/>
<stop offset="1" stop-color="#DEE8FF"/>
</linearGradient>
<linearGradient id="paint27_linear" x1="514.145" y1="489.508" x2="586.411" y2="530.851" gradientUnits="userSpaceOnUse">
<stop offset="8.4e-07" stop-color="#788ACB"/>
<stop offset="1" stop-color="#DEE8FF"/>
</linearGradient>
<linearGradient id="paint28_linear" x1="490.112" y1="491.995" x2="484.069" y2="517.624" gradientUnits="userSpaceOnUse">
<stop offset="6.3e-07" stop-color="white"/>
<stop offset="1" stop-color="#E1E6F0"/>
</linearGradient>
<linearGradient id="paint29_linear" x1="528.734" y1="482.827" x2="461.734" y2="482.827" gradientUnits="userSpaceOnUse">
<stop offset="8.4e-07" stop-color="#788ACB"/>
<stop offset="1" stop-color="#DEE8FF"/>
</linearGradient>
<linearGradient id="paint30_linear" x1="522.26" y1="475.324" x2="594.526" y2="516.666" gradientUnits="userSpaceOnUse">
<stop offset="8.4e-07" stop-color="#788ACB"/>
<stop offset="1" stop-color="#DEE8FF"/>
</linearGradient>
<linearGradient id="paint31_linear" x1="490.112" y1="473.168" x2="484.069" y2="498.797" gradientUnits="userSpaceOnUse">
<stop offset="6.3e-07" stop-color="white"/>
<stop offset="1" stop-color="#E1E6F0"/>
</linearGradient>
<linearGradient id="paint32_linear" x1="572.755" y1="464" x2="457.356" y2="464" gradientUnits="userSpaceOnUse">
<stop offset="6.3e-07" stop-color="white"/>
<stop offset="1" stop-color="#E1E6F0"/>
</linearGradient>
<linearGradient id="paint33_linear" x1="505.949" y1="310.335" x2="774.72" y2="1107.13" gradientUnits="userSpaceOnUse">
<stop offset="8.4e-07" stop-color="#788ACB"/>
<stop offset="1" stop-color="#DEE8FF"/>
</linearGradient>
<linearGradient id="paint34_linear" x1="628.806" y1="627.727" x2="549.262" y2="965.054" gradientUnits="userSpaceOnUse">
<stop offset="6.3e-07" stop-color="white"/>
<stop offset="1" stop-color="#E1E6F0"/>
</linearGradient>
<linearGradient id="paint35_linear" x1="635.727" y1="486.262" x2="628.845" y2="632.517" gradientUnits="userSpaceOnUse">
<stop offset="6.3e-07" stop-color="white"/>
<stop offset="1" stop-color="#E1E6F0"/>
</linearGradient>
<clipPath id="clip0">
<rect width="1600" height="1347.9" fill="white"/>
</clipPath>
</defs>
</svg>
