<svg width="1600" height="1348" viewBox="0 0 1600 1348" fill="none" xmlns="http://www.w3.org/2000/svg">
<g clip-path="url(#clip0)">
<path d="M1600 0H0V1347.9H1600V0Z" fill="url(#paint0_linear)" fill-opacity="0.9"/>
<g opacity="0.05">
<g opacity="0.05">
<path opacity="0.05" d="M666.4 672.2H334.1V763.7H653.5L666.4 672.2Z" fill="url(#paint1_linear)"/>
<g opacity="0.05">
<path opacity="0.05" d="M334.1 496.7V763.7L425.7 710.8V443.8L334.1 496.7Z" fill="#E1E6F0"/>
<path opacity="0.05" d="M334.1 496.7V763.7L242.5 710.8V443.8L334.1 496.7Z" fill="url(#paint2_linear)"/>
<path opacity="0.05" d="M242.5 443.8L334.1 496.7L425.7 443.8L334.1 391L242.5 443.8Z" fill="url(#paint3_linear)"/>
</g>
<g opacity="0.05">
<path opacity="0.05" d="M95.3999 524.5V710L153.7 676.3V490.9L95.3999 524.5Z" fill="#E1E6F0"/>
<path opacity="0.05" d="M95.3999 524.5V710L37.0999 676.3V490.9L95.3999 524.5Z" fill="url(#paint4_linear)"/>
<path opacity="0.05" d="M37.0999 490.9L95.3999 524.5L153.7 490.9L95.3999 457.2L37.0999 490.9Z" fill="url(#paint5_linear)"/>
</g>
<g opacity="0.05">
<path opacity="0.05" d="M419.5 796.2H78.3V915.2H419.5V796.2Z" fill="url(#paint6_linear)"/>
<path opacity="0.05" d="M78.3 690.7V915.2L169.9 862.3V637.8L78.3 690.7Z" fill="url(#paint7_linear)"/>
<path opacity="0.05" d="M-13.3 637.8L78.3 690.7L169.9 637.8L78.3 690.7L-13.3 637.8Z" fill="white"/>
<path opacity="0.05" d="M78.3 690.7V915.2L-13.3 862.3V637.8L78.3 690.7Z" fill="url(#paint8_linear)"/>
<path opacity="0.05" d="M-13.3 637.8L78.3 690.7L169.9 637.8L78.3 584.9L-13.3 637.8Z" fill="url(#paint9_linear)"/>
</g>
</g>
<g opacity="0.05">
<path opacity="0.05" d="M667.3 488.3H515.8V569.1H667.3V488.3Z" fill="url(#paint10_linear)"/>
<g opacity="0.05">
<g opacity="0.05">
<path opacity="0.05" d="M515.8 554.2V569.1L574.2 535.4V520.5L515.8 554.2Z" fill="url(#paint11_linear)"/>
<path opacity="0.05" d="M457.3 520.5L515.8 554.2L574.2 520.5L515.8 554.2L457.3 520.5Z" fill="white"/>
<path opacity="0.05" d="M515.8 554.2V569.1L457.3 535.4V520.5L515.8 554.2Z" fill="url(#paint12_linear)"/>
<path opacity="0.05" d="M457.3 520.5L515.8 554.2L574.2 520.5L515.8 486.7L457.3 520.5Z" fill="url(#paint13_linear)"/>
</g>
<g opacity="0.05">
<path opacity="0.05" d="M515.8 535.4V550.3L574.2 516.6V501.7L515.8 535.4Z" fill="url(#paint14_linear)"/>
<path opacity="0.05" d="M457.3 501.7L515.8 535.4L574.2 501.7L515.8 535.4L457.3 501.7Z" fill="white"/>
<path opacity="0.05" d="M515.8 535.4V550.3L457.3 516.6V501.7L515.8 535.4Z" fill="url(#paint15_linear)"/>
<path opacity="0.05" d="M457.3 501.7L515.8 535.4L574.2 501.7L515.8 467.9L457.3 501.7Z" fill="url(#paint16_linear)"/>
</g>
<g opacity="0.05">
<path opacity="0.05" d="M515.8 516.6V531.5L574.2 497.7V482.8L515.8 516.6Z" fill="url(#paint17_linear)"/>
<path opacity="0.05" d="M457.3 482.8L515.8 516.6L574.2 482.8L515.8 516.6L457.3 482.8Z" fill="white"/>
<path opacity="0.05" d="M515.8 516.6V531.5L457.3 497.7V482.8L515.8 516.6Z" fill="url(#paint18_linear)"/>
<path opacity="0.05" d="M544 500.2L574.2 482.8L515.8 449.1L457.3 482.8L515.8 516.6L544 500.2Z" fill="url(#paint19_linear)"/>
</g>
<g opacity="0.05">
<path opacity="0.05" d="M515.8 497.7V512.6L574.2 478.9V464L515.8 497.7Z" fill="url(#paint20_linear)"/>
<path opacity="0.05" d="M457.3 464L515.8 497.7L574.2 464L515.8 497.7L457.3 464Z" fill="white"/>
<path opacity="0.05" d="M515.8 497.7V512.6L457.3 478.9V464L515.8 497.7Z" fill="url(#paint21_linear)"/>
<path opacity="0.05" d="M457.3 464L515.8 497.7L574.2 464L515.8 430.3L457.3 464Z" fill="url(#paint22_linear)"/>
</g>
</g>
</g>
<g opacity="0.05">
<path opacity="0.05" d="M631 643V1068.1L729.5 1011.3V586.1L631 643Z" fill="url(#paint23_linear)"/>
<path opacity="0.05" d="M532.5 586.1L631 643L729.5 586.1L631 643L532.5 586.1Z" fill="white"/>
<path opacity="0.05" d="M631 643V1068.1L532.5 1011.3V586.1L631 643Z" fill="url(#paint24_linear)"/>
<path opacity="0.05" d="M532.5 586.1L631 643L729.5 586.1L631 529.3L532.5 586.1Z" fill="url(#paint25_linear)"/>
</g>
</g>
<path opacity="0.1" fill-rule="evenodd" clip-rule="evenodd" d="M1655.8 178.3C1664.9 212.4 1644.7 247.5 1610.5 256.7C1576.4 265.8 1541.3 245.6 1532.1 211.4C1523 177.3 1543.2 142.2 1577.4 133C1611.6 123.9 1646.7 144.2 1655.8 178.3Z" fill="#FCFAFA"/>
<path opacity="0.1" fill-rule="evenodd" clip-rule="evenodd" d="M1495 838.5C1517.4 838.5 1535.5 856.6 1535.5 879C1535.5 901.4 1517.4 919.5 1495 919.5C1472.6 919.5 1454.5 901.4 1454.5 879C1454.5 856.6 1472.6 838.5 1495 838.5Z" fill="#FCFAFA"/>
<path opacity="0.1" fill-rule="evenodd" clip-rule="evenodd" d="M857 805.5C879.4 805.5 897.5 823.6 897.5 846C897.5 868.4 879.4 886.5 857 886.5C834.6 886.5 816.5 868.4 816.5 846C816.5 823.6 834.6 805.5 857 805.5Z" fill="#FCFAFA"/>
<path opacity="0.1" fill-rule="evenodd" clip-rule="evenodd" d="M1600 225.5C1622.4 225.5 1640.5 243.6 1640.5 266C1640.5 288.4 1622.4 306.5 1600 306.5C1577.6 306.5 1559.5 288.4 1559.5 266C1559.5 243.6 1577.6 225.5 1600 225.5Z" fill="#FCFAFA"/>
<path opacity="0.1" fill-rule="evenodd" clip-rule="evenodd" d="M897 232.7C904.4 232.7 910.3 238.7 910.3 246C910.3 253.4 904.3 259.3 897 259.3C889.6 259.3 883.7 253.3 883.7 246C883.7 238.6 889.6 232.7 897 232.7Z" fill="#FCFAFA"/>
<path opacity="0.1" fill-rule="evenodd" clip-rule="evenodd" d="M722.7 -45.9C748.2 -45.9 768.9 -25.2 768.9 0.299976C768.9 25.8 748.2 46.5 722.7 46.5C697.2 46.5 676.5 25.8 676.5 0.299976C676.5 -25.2 697.2 -45.9 722.7 -45.9Z" fill="#FCFAFA"/>
</g>
<defs>
<linearGradient id="paint0_linear" x1="241.71" y1="2.18251" x2="1429.23" y2="1431.02" gradientUnits="userSpaceOnUse">
<stop offset="0.0421583" stop-color="#D00000" stop-opacity="0.78"/>
<stop offset="1" stop-color="#F8BA00"/>
</linearGradient>
<linearGradient id="paint1_linear" x1="170.904" y1="717.975" x2="634.278" y2="717.975" gradientUnits="userSpaceOnUse">
<stop offset="2.51e-06" stop-color="#788ACB"/>
<stop offset="1" stop-color="white"/>
</linearGradient>
<linearGradient id="paint2_linear" x1="318.846" y1="474.147" x2="267.131" y2="693.456" gradientUnits="userSpaceOnUse">
<stop offset="6.3e-07" stop-color="white"/>
<stop offset="1" stop-color="#E1E6F0"/>
</linearGradient>
<linearGradient id="paint3_linear" x1="338.446" y1="350.97" x2="332.044" y2="486.998" gradientUnits="userSpaceOnUse">
<stop offset="6.3e-07" stop-color="white"/>
<stop offset="1" stop-color="#E1E6F0"/>
</linearGradient>
<linearGradient id="paint4_linear" x1="87.3252" y1="511.171" x2="51.7204" y2="662.161" gradientUnits="userSpaceOnUse">
<stop offset="6.3e-07" stop-color="white"/>
<stop offset="1" stop-color="#E1E6F0"/>
</linearGradient>
<linearGradient id="paint5_linear" x1="98.1869" y1="431.806" x2="94.1156" y2="518.321" gradientUnits="userSpaceOnUse">
<stop offset="6.3e-07" stop-color="white"/>
<stop offset="1" stop-color="#E1E6F0"/>
</linearGradient>
<linearGradient id="paint6_linear" x1="-66.0455" y1="855.704" x2="334.693" y2="855.704" gradientUnits="userSpaceOnUse">
<stop offset="2.3e-06" stop-color="#788ACB"/>
<stop offset="1" stop-color="white"/>
</linearGradient>
<linearGradient id="paint7_linear" x1="28.3088" y1="492.646" x2="175.926" y2="930.273" gradientUnits="userSpaceOnUse">
<stop offset="8.4e-07" stop-color="#788ACB"/>
<stop offset="1" stop-color="#DEE8FF"/>
</linearGradient>
<linearGradient id="paint8_linear" x1="58.6682" y1="665.313" x2="14.3198" y2="853.383" gradientUnits="userSpaceOnUse">
<stop offset="6.3e-07" stop-color="white"/>
<stop offset="1" stop-color="#E1E6F0"/>
</linearGradient>
<linearGradient id="paint9_linear" x1="82.623" y1="544.914" x2="76.2216" y2="680.942" gradientUnits="userSpaceOnUse">
<stop offset="6.3e-07" stop-color="white"/>
<stop offset="1" stop-color="#E1E6F0"/>
</linearGradient>
<linearGradient id="paint10_linear" x1="489.635" y1="528.717" x2="662.076" y2="528.717" gradientUnits="userSpaceOnUse">
<stop offset="2.3e-06" stop-color="#788ACB"/>
<stop offset="0.2139" stop-color="#A2AEDB"/>
<stop offset="0.4536" stop-color="#CAD1EB"/>
<stop offset="0.6727" stop-color="#E7EAF6"/>
<stop offset="0.8621" stop-color="#F9FAFD"/>
<stop offset="1" stop-color="white"/>
</linearGradient>
<linearGradient id="paint11_linear" x1="497.915" y1="517.877" x2="570.181" y2="559.22" gradientUnits="userSpaceOnUse">
<stop offset="8.4e-07" stop-color="#788ACB"/>
<stop offset="1" stop-color="#DEE8FF"/>
</linearGradient>
<linearGradient id="paint12_linear" x1="490.112" y1="529.648" x2="484.069" y2="555.277" gradientUnits="userSpaceOnUse">
<stop offset="6.3e-07" stop-color="white"/>
<stop offset="1" stop-color="#E1E6F0"/>
</linearGradient>
<linearGradient id="paint13_linear" x1="528.733" y1="520.48" x2="461.734" y2="520.48" gradientUnits="userSpaceOnUse">
<stop offset="8.4e-07" stop-color="#788ACB"/>
<stop offset="1" stop-color="#DEE8FF"/>
</linearGradient>
<linearGradient id="paint14_linear" x1="506.03" y1="503.693" x2="578.296" y2="545.035" gradientUnits="userSpaceOnUse">
<stop offset="8.4e-07" stop-color="#788ACB"/>
<stop offset="1" stop-color="#DEE8FF"/>
</linearGradient>
<linearGradient id="paint15_linear" x1="490.112" y1="510.822" x2="484.069" y2="536.451" gradientUnits="userSpaceOnUse">
<stop offset="6.3e-07" stop-color="white"/>
<stop offset="1" stop-color="#E1E6F0"/>
</linearGradient>
<linearGradient id="paint16_linear" x1="528.733" y1="501.653" x2="461.734" y2="501.653" gradientUnits="userSpaceOnUse">
<stop offset="8.4e-07" stop-color="#788ACB"/>
<stop offset="1" stop-color="#DEE8FF"/>
</linearGradient>
<linearGradient id="paint17_linear" x1="514.145" y1="489.508" x2="586.411" y2="530.851" gradientUnits="userSpaceOnUse">
<stop offset="8.4e-07" stop-color="#788ACB"/>
<stop offset="1" stop-color="#DEE8FF"/>
</linearGradient>
<linearGradient id="paint18_linear" x1="490.112" y1="491.995" x2="484.069" y2="517.624" gradientUnits="userSpaceOnUse">
<stop offset="6.3e-07" stop-color="white"/>
<stop offset="1" stop-color="#E1E6F0"/>
</linearGradient>
<linearGradient id="paint19_linear" x1="528.733" y1="482.827" x2="461.734" y2="482.827" gradientUnits="userSpaceOnUse">
<stop offset="8.4e-07" stop-color="#788ACB"/>
<stop offset="1" stop-color="#DEE8FF"/>
</linearGradient>
<linearGradient id="paint20_linear" x1="522.26" y1="475.324" x2="594.526" y2="516.666" gradientUnits="userSpaceOnUse">
<stop offset="8.4e-07" stop-color="#788ACB"/>
<stop offset="1" stop-color="#DEE8FF"/>
</linearGradient>
<linearGradient id="paint21_linear" x1="490.112" y1="473.168" x2="484.069" y2="498.797" gradientUnits="userSpaceOnUse">
<stop offset="6.3e-07" stop-color="white"/>
<stop offset="1" stop-color="#E1E6F0"/>
</linearGradient>
<linearGradient id="paint22_linear" x1="572.755" y1="464" x2="457.356" y2="464" gradientUnits="userSpaceOnUse">
<stop offset="6.3e-07" stop-color="white"/>
<stop offset="1" stop-color="#E1E6F0"/>
</linearGradient>
<linearGradient id="paint23_linear" x1="505.949" y1="310.335" x2="774.72" y2="1107.13" gradientUnits="userSpaceOnUse">
<stop offset="8.4e-07" stop-color="#788ACB"/>
<stop offset="1" stop-color="#DEE8FF"/>
</linearGradient>
<linearGradient id="paint24_linear" x1="628.806" y1="627.727" x2="549.262" y2="965.054" gradientUnits="userSpaceOnUse">
<stop offset="6.3e-07" stop-color="white"/>
<stop offset="1" stop-color="#E1E6F0"/>
</linearGradient>
<linearGradient id="paint25_linear" x1="635.727" y1="486.262" x2="628.845" y2="632.517" gradientUnits="userSpaceOnUse">
<stop offset="6.3e-07" stop-color="white"/>
<stop offset="1" stop-color="#E1E6F0"/>
</linearGradient>
<clipPath id="clip0">
<rect width="1600" height="1347.9" fill="white"/>
</clipPath>
</defs>
</svg>
